<?xml version="1.0" encoding="UTF-8"?>
<svg width="330px" height="330px" viewBox="0 0 330 330" version="1.1" xmlns="http://www.w3.org/2000/svg" xmlns:xlink="http://www.w3.org/1999/xlink">
    <!-- Generator: Sketch 52.6 (67491) - http://www.bohemiancoding.com/sketch -->
    <title>Artboard Copy 22</title>
    <desc>Created with Sketch.</desc>
    <g id="Artboard-Copy-22" stroke="none" stroke-width="1" fill="none" fill-rule="evenodd">
        <circle id="Oval-Copy-24" fill="#EFEFEF" cx="228.5" cy="102.5" r="102.5"></circle>
        <g id="Group-23" transform="translate(22.000000, 88.000000)" fill="#3E70FE">
            <path d="M139,124.180209 L139,118.819791 C139,112.293232 133.398214,107 126.502537,107 C119.596712,107 114,112.293232 114,118.819791 L114,124.180209 C114,130.701969 119.596712,136 126.502537,136 C133.398214,136 139,130.706768 139,124.180209 Z" id="Path"></path>
            <path d="M146.081574,131.434663 C143.380645,140.447501 135.2283,147.069693 125.504956,147.069693 C115.776656,147.069693 107.624311,140.452545 104.918426,131.434663 L20.8228964,131.434663 C15.5151993,131.434663 10.4998963,130.178817 6,128 L6,184.825768 C6,195.921596 14.9204993,205 25.8233318,205 L225.176668,205 C236.079501,205 245,195.921596 245,184.825768 L245,128.005044 C240.500104,130.183861 235.484801,131.439707 230.182059,131.439707 L146.081574,131.434663 Z" id="Path"></path>
            <path d="M229.267006,31.9817282 L181.492059,31.9817282 C178.611233,13.8847016 162.973172,0 144.135852,0 L105.854197,0 C87.0119014,0 71.3887673,13.8847016 68.4979899,31.9817282 L20.7329937,31.9817282 C9.32910082,31.9817282 0,40.9653597 0,51.9453538 L0,98.0263926 C0,109.046314 8.91115711,117.990018 19.9020818,117.990018 L103.391315,117.990018 C103.674919,112.255467 106.132826,107.079897 110.018708,103.35169 C110.13812,103.24189 110.277435,103.147063 110.401823,103.037263 C111.262588,102.243708 112.158182,101.495073 113.138359,100.846255 C113.486646,100.611682 113.884687,100.451973 114.2479,100.242355 C115.053935,99.7782007 115.850018,99.2940828 116.720734,98.9347376 C117.40238,98.6502559 118.138757,98.485556 118.855232,98.270947 C119.472197,98.0862835 120.059308,97.8417291 120.70115,97.7119655 C122.094296,97.4274838 123.532221,97.2777566 125,97.2777566 C126.472754,97.2777566 127.905704,97.4324747 129.293874,97.7119655 C129.930741,97.8417291 130.522828,98.0862835 131.144768,98.270947 C131.861243,98.485556 132.587669,98.6502559 133.279266,98.9397285 C134.145007,99.2990737 134.936114,99.7782007 135.742149,100.242355 C136.105362,100.456964 136.503403,100.616673 136.861641,100.851246 C137.841818,101.495073 138.732436,102.243708 139.593201,103.037263 C139.717589,103.152053 139.871831,103.24189 139.981292,103.361672 C143.872149,107.09487 146.325081,112.255467 146.608685,118 L230.097918,118 C241.088843,118 250,109.061287 250,98.0363744 L250,51.9553356 C250,40.9653597 240.670899,31.9817282 229.267006,31.9817282 Z M87.6686701,31.9817282 C90.2061856,24.2907414 97.3560084,18.6859536 105.864148,18.6859536 L144.145803,18.6859536 C152.648967,18.6859536 159.79879,24.2907414 162.336305,31.9817282 L87.6686701,31.9817282 Z" id="Shape" fill-rule="nonzero"></path>
        </g>
    </g>
</svg>