<?xml version="1.0" encoding="UTF-8"?>
<svg width="330px" height="330px" viewBox="0 0 330 330" version="1.1" xmlns="http://www.w3.org/2000/svg" xmlns:xlink="http://www.w3.org/1999/xlink">
    <!-- Generator: Sketch 52.6 (67491) - http://www.bohemiancoding.com/sketch -->
    <title>Artboard Copy 20</title>
    <desc>Created with Sketch.</desc>
    <g id="Artboard-Copy-20" stroke="none" stroke-width="1" fill="none" fill-rule="evenodd">
        <circle id="Oval-Copy-24" fill="#EFEFEF" cx="228.5" cy="102.5" r="102.5"></circle>
        <g id="Shape-2" transform="translate(74.000000, 76.000000)" fill="#3E70FE" fill-rule="nonzero">
            <path d="M129.49239,163.409838 C129.49239,163.409838 154.461086,188.099896 154.526776,188.13558 C162.488381,196.060664 160.429005,209.987141 152.877962,217.565117 L118.049226,253.411279 C104.595953,266.663005 86.6199378,248.269544 99.6790714,235.439538 L121.773838,213.600953 L100.142185,192.40468 L129.49239,163.409838 Z M51.8371849,163.409838 C51.8371849,163.409838 26.9046186,188.099896 26.9046186,188.13558 C18.8773241,196.060664 20.9366996,209.987141 28.4023462,217.565117 L63.385453,253.411279 C76.7861736,266.663005 94.7654739,248.269544 81.77203,235.439538 L59.7133927,213.600953 L81.1775372,192.40468 L51.8371849,163.409838 Z M91.5335353,71.55932 C111.532797,71.55932 127.75818,55.576149 127.75818,35.729378 C127.75818,15.999391 111.536082,0 91.5335353,0 C71.5145666,0 55.2563393,15.999391 55.2563393,35.729378 C55.2563393,55.559929 71.4981442,71.55932 91.5335353,71.55932 Z M130.78648,149.081106 L131.315283,124.673276 L161.434059,152.422422 C163.884289,154.72566 167.030831,155.815642 170.177372,155.815642 C173.57682,155.815642 177.032104,154.472628 179.548023,151.819039 C184.379509,146.680548 184.106896,138.684097 178.933824,133.912178 C178.933824,133.912178 144.410546,96.8560051 139.444396,92.5382457 C130.260961,84.4931343 116.791266,79.9320751 94.9362673,79.9320751 L88.081536,79.9320751 C66.2101147,79.9320751 52.7568422,84.4931343 43.5372777,92.5220257 C38.5908353,96.8397851 4.06427261,133.912178 4.06427261,133.912178 C-1.08909277,138.680853 -1.39455037,146.680548 3.45007291,151.819039 C5.96927701,154.472628 9.40156944,155.815642 12.8240084,155.815642 C15.9705502,155.815642 19.1170919,154.72566 21.5837442,152.422422 L51.6893828,124.689496 L52.2149013,149.094082 L130.789764,149.094082 L130.789764,149.081106 L130.78648,149.081106 Z" id="Shape"></path>
        </g>
    </g>
</svg>