<?xml version="1.0" encoding="UTF-8"?>
<svg width="330px" height="330px" viewBox="0 0 330 330" version="1.1" xmlns="http://www.w3.org/2000/svg" xmlns:xlink="http://www.w3.org/1999/xlink">
    <!-- Generator: Sketch 52.6 (67491) - http://www.bohemiancoding.com/sketch -->
    <title>Artboard Copy 23</title>
    <desc>Created with Sketch.</desc>
    <g id="Artboard-Copy-23" stroke="none" stroke-width="1" fill="none" fill-rule="evenodd">
        <circle id="Oval-Copy-24" fill="#EFEFEF" cx="228.5" cy="102.5" r="102.5"></circle>
        <g id="Group-27" transform="translate(7.000000, 81.000000)" fill="#3E70FE">
            <path d="M25.4496124,158.402516 C23.5852713,160.264151 21.3682171,161.773585 19,162.779874 L19,175.610063 L19,196.842767 C19,201.924528 23.1317829,206 28.1705426,206 L48.8294574,206 C53.9186047,206 58,201.874214 58,196.842767 L58,175.610063 L58,148.540881 L58,127.308176 C58,126.855346 57.9496124,126.402516 57.8992248,126 L25.4496124,158.402516 Z" id="Path"></path>
            <path d="M237.506089,26 C237.30664,26 237.107191,26 236.85788,26 C223.095915,26.6497629 209.284088,27.2995257 195.522123,27.9492886 C193.378048,28.0492521 191.283836,28.1492156 190.087144,30.7482671 C188.890451,33.2973367 190.23673,34.7468077 191.732596,36.2462605 C195.970882,40.49471 200.159307,44.7931412 204.447455,48.9416271 L199.760409,53.6399124 L161.615832,91.8759577 L158.225203,95.2747173 L149.898216,103.621671 L117.088894,136.509668 L115.19413,134.610361 L75.9525848,95.2747173 L67.6255987,86.9277636 L65.3818,84.6785845 C63.5867611,82.8792412 61.2931002,82.0295513 58.9495772,82.0295513 C56.6060541,82.0295513 54.3123933,82.9292229 52.5173543,84.6785845 L50.2735557,86.9277636 L2.65516175,134.660343 C-0.885053918,138.209048 -0.885053918,144.006932 2.65516175,147.555637 L4.89896042,149.804816 C6.69399935,151.604159 8.98766021,152.453849 11.3311833,152.453849 C13.6747063,152.453849 15.9683672,151.554177 17.7634061,149.804816 L58.9495772,108.519883 L60.8443405,110.41919 L100.085886,149.754834 L108.412872,158.101788 L110.656671,160.350967 C112.45171,162.15031 114.745371,163 117.088894,163 C119.432417,163 121.726078,162.100328 123.521117,160.350967 L125.764915,158.101788 L165.006461,118.766144 L173.333447,110.41919 L176.724076,107.02043 L214.868653,68.7843853 L219.505837,64.1360817 L231.971385,76.5315578 C233.118216,77.6811383 234.265046,78.9306822 235.910499,78.9306822 C236.508845,78.9306822 237.206916,78.7307552 237.954848,78.3309011 C240.447958,76.9813937 240.996442,74.7821963 241.096167,72.3330901 C241.694513,58.8380153 242.342721,45.3929223 242.99093,31.8978475 C243.140517,27.8493251 241.445202,26 237.506089,26 Z" id="Path"></path>
            <path d="M94.9340326,84.3574723 C98.8931953,86.2520254 103.102938,87.2491587 107.362797,87.8972953 C110.720567,88.4457186 110.820799,88.5952885 110.870915,92.0353982 C110.870915,93.6308114 110.921031,95.1763679 110.921031,96.7717811 C110.921031,98.7660476 111.923351,99.9127508 113.92799,99.9626075 C116.283442,100.012464 118.588777,100.012464 120.944228,99.9626075 C122.848636,99.9127508 123.850955,98.8657609 123.850955,96.9712078 C123.850955,94.8273713 123.951187,92.6835348 123.850955,90.4898417 C123.750723,88.2961486 124.702927,87.199302 126.807798,86.6010221 C131.669049,85.2548922 135.828675,82.6623458 139.036098,78.8233828 C147.906628,68.1042004 144.498741,52.3993519 131.919629,45.4692758 C127.960466,43.2755827 123.800839,41.6303129 119.641213,39.9351863 C117.235645,38.9380531 114.93031,37.7913499 112.925671,36.14608 C108.916392,32.9552536 109.668132,27.8200174 114.379034,25.7758943 C115.68205,25.227471 117.085297,25.0280444 118.538661,24.928331 C123.951187,24.6291911 129.113134,25.6263243 134.074616,27.9695874 C136.530299,29.1661473 137.332155,28.767294 138.184127,26.2246043 C139.036098,23.5323445 139.787838,20.8400848 140.589694,18.0979683 C141.14097,16.3031285 140.489462,15.056712 138.735403,14.308862 C135.578096,12.9128755 132.320557,11.9157422 128.962786,11.4171756 C124.502463,10.7191824 124.502463,10.7191824 124.502463,6.28193942 C124.452347,0 124.452347,0 118.187849,0 C117.285761,0 116.333558,0 115.43147,0 C112.474627,0.0997133242 111.973467,0.598279945 111.923351,3.53982301 C111.873235,4.88595289 111.923351,6.1822261 111.923351,7.52835598 C111.923351,11.4670323 111.873235,11.4171756 108.114536,12.7633055 C98.9934273,16.0538452 93.3303211,22.2360713 92.7289293,32.1575471 C92.1776534,40.9323196 96.788324,46.8652624 104.005026,51.1529353 C108.465348,53.7953384 113.426831,55.3907516 118.137733,57.4348747 C119.992025,58.2325813 121.746084,59.1798579 123.299679,60.4262745 C127.860234,64.1655241 127.008262,70.3976069 121.595736,72.74087 C118.689009,73.9872866 115.68205,74.2864265 112.524743,73.9374299 C107.713608,73.3391499 103.052822,72.0927334 98.6927313,69.7993269 C96.1368162,68.4531971 95.3850764,68.8021937 94.5331047,71.5941668 C93.7813649,73.9872866 93.1298571,76.3804063 92.4783493,78.7735261 C91.5261456,82.0640658 91.8268415,82.8617724 94.9340326,84.3574723 Z" id="Path"></path>
            <path d="M100.813953,167.228943 L92.3992248,158.917305 L74.2596899,141 C73.4534884,142.343798 73,143.936447 73,145.578867 L73,149.162328 L73,193.358346 L73,196.941807 C73,201.968606 77.1317829,206 82.1705426,206 L102.829457,206 C107.918605,206 112,201.918836 112,196.941807 L112,193.358346 L112,174.694487 C108.674419,173.748851 105.600775,171.957121 103.081395,169.468606 L100.813953,167.228943 Z" id="Path"></path>
            <path d="M133.96124,167.108048 L131.693798,169.354694 C130.031008,171.002235 128.116279,172.350224 126,173.348733 L126,193.318927 L126,196.913562 C126,201.956036 130.131783,206 135.170543,206 L155.829457,206 C160.918605,206 165,201.90611 165,196.913562 L165,193.318927 L165,148.985097 L165,145.390462 C165,142.894188 163.992248,140.647541 162.329457,139 L133.96124,167.108048 Z" id="Path"></path>
            <path d="M184.643411,116 L181.217054,119.4 L179,121.6 L179,127.85 L179,132.15 L179,148.95 L179,153.25 L179,175.8 L179,196.9 C179,201.95 183.131783,206 188.170543,206 L208.829457,206 C213.918605,206 218,201.9 218,196.9 L218,175.8 L218,153.3 L218,149 L218,132.2 L218,127.9 L218,105.3 L218,84.2 C218,83.8 217.949612,83.4 217.899225,83 L184.643411,116 Z" id="Path"></path>
        </g>
    </g>
</svg>