<?xml version="1.0" encoding="UTF-8"?>
<svg width="330px" height="330px" viewBox="0 0 330 330" version="1.1" xmlns="http://www.w3.org/2000/svg" xmlns:xlink="http://www.w3.org/1999/xlink">
    <!-- Generator: Sketch 52.6 (67491) - http://www.bohemiancoding.com/sketch -->
    <title>Artboard</title>
    <desc>Created with Sketch.</desc>
    <g id="Artboard" stroke="none" stroke-width="1" fill="none" fill-rule="evenodd">
        <circle id="Oval-Copy-24" fill="#EFEFEF" cx="228.5" cy="102.5" r="102.5"></circle>
        <g id="Group-24" transform="translate(6.000000, 75.000000)" fill="#3E70FE">
            <path d="M60.5278018,112.525509 C62.9310605,106.369167 65.5422212,100.416515 68.3536528,94.6922973 C74.108124,82.9773543 80.7189941,72.2066126 88.104248,62.4714454 C66.3280488,60.7029727 45.4559326,67.4189815 27.0118711,82.2806257 C10.1776123,95.8458972 1.34277344,111.400463 0.974655273,112.055312 C-0.308990234,114.343476 -0.326156738,117.126584 0.930786133,119.428073 C2.187729,121.731466 4.54139697,123.225816 7.16209424,123.389528 L47.143936,125.879478 L60.5278018,112.525509 Z" id="Path"></path>
            <path d="M155.612945,181.77959 C149.875641,184.587445 143.911362,187.193516 137.744903,189.59209 L124.362945,202.947962 L126.857758,242.851867 C127.02179,245.467456 128.520966,247.816536 130.82695,249.071028 C131.967544,249.691612 133.224487,250 134.48143,250 C135.768891,250 137.056351,249.676383 138.216019,249.027245 C138.872146,248.659844 154.455185,239.842227 168.048858,223.040784 C182.941437,204.634579 189.668655,183.801246 187.896729,162.067495 C178.14064,169.438353 167.348862,176.03824 155.612945,181.77959 Z" id="Path"></path>
            <path d="M207.023621,6.76550292 C198.472977,8.89376218 188.776016,11.7720517 178.611755,15.634518 L234.817505,71.7307047 C243.989944,47.566018 248.094559,24.5911004 249.925613,9.44771881 C250.547409,4.29839766 246.171951,-0.0685307018 241.010666,0.544438596 C231.967926,1.62379678 220.155716,3.5007768 207.023621,6.76550292 Z" id="Path"></path>
            <path d="M114.189148,55.6888099 C96.5671538,73.2764527 84.4192505,94.3743908 76.0440825,114.950734 L135.316849,174.107959 C155.399322,165.929962 176.851272,153.840004 194.690704,136.033443 C209.428787,121.325993 220.336914,104.160956 228.412628,86.8988333 L163.431167,22.0459459 C146.430969,29.9897963 129.055023,40.8519128 114.189148,55.6888099 Z M186.96785,110.024138 C180.526733,116.452699 172.067642,119.666027 163.608551,119.666027 C155.14946,119.666027 146.688461,116.452699 140.249252,110.024138 C127.370834,97.1689206 127.370834,76.253731 140.249252,63.3985136 C153.129578,50.5432963 174.087524,50.5432963 186.96785,63.3985136 C199.846268,76.253731 199.846268,97.1689206 186.96785,110.024138 Z" id="Shape" fill-rule="nonzero"></path>
            <path d="M151.052475,99.2438782 C157.97615,106.154057 169.242859,106.152154 176.164627,99.2438782 C183.088303,92.3336988 183.088303,81.0889527 176.164627,74.1787739 C172.702789,70.7255877 168.15567,68.9970911 163.608551,68.9970911 C159.059524,68.9970911 154.514313,70.7236842 151.052475,74.1806774 C144.128799,81.0889527 144.128799,92.3336988 151.052475,99.2438782 Z" id="Path"></path>
            <path d="M42.6158906,155.410499 C42.3450469,155.6732 42.0684814,155.932094 41.8033599,156.198602 C13.7500762,184.195297 12.8803252,227.615208 12.857437,229.450308 C12.8307344,231.504325 13.637543,233.484101 15.0947568,234.936571 C16.5271758,236.368101 18.4707642,237.16953 20.4944609,237.16953 L20.5917358,237.16953 C22.4304199,237.146686 65.9332275,236.278631 93.9865112,208.280032 C94.2516328,208.015427 94.5110322,207.737497 94.7761533,207.467181 L42.6158906,155.410499 Z" id="Path"></path>
            <polygon id="Path" points="107.305527 198.409707 122.684479 183.060733 67.0700073 127.556576 51.6910552 142.90555 59.1869355 150.384914 99.8096465 190.930342"></polygon>
        </g>
    </g>
</svg>