<?xml version="1.0" encoding="UTF-8"?>
<svg width="330px" height="330px" viewBox="0 0 330 330" version="1.1" xmlns="http://www.w3.org/2000/svg" xmlns:xlink="http://www.w3.org/1999/xlink">
    <!-- Generator: Sketch 52.6 (67491) - http://www.bohemiancoding.com/sketch -->
    <title>Artboard Copy 11</title>
    <desc>Created with Sketch.</desc>
    <g id="Artboard-Copy-11" stroke="none" stroke-width="1" fill="none" fill-rule="evenodd">
        <circle id="Oval-Copy-24" fill="#EFEFEF" cx="228.5" cy="102.5" r="102.5"></circle>
        <g id="Group-32" transform="translate(39.000000, 61.000000)" fill="#3E70FE">
            <path d="M65.6214576,151.075159 C71.6429153,151.075159 78.2711864,151.66423 84.3220339,152.778267 L84.3220339,134.613223 L128.40678,134.613223 L128.40678,167.032919 C133.59322,168.941335 137.380186,170.999619 140.935492,173.588066 C147.675271,178.494681 151.379254,184.935479 151.601407,192 C160.180644,189.968571 168.049339,186.524239 174.858271,181.832461 C177.318373,180.138016 180.271186,178.654943 182,177.382376 L182,126.927579 L106.159542,42 L29,127.439551 L29,157.973353 C34.1864407,156.65574 38.9130169,155.239371 44.3916271,153.742437 C50.8712203,151.972626 58.0622203,151.075159 65.6214576,151.075159 Z" id="Path"></path>
            <polygon id="Path" points="106.622893 21.7543907 192.429904 117 212 117 106.450733 0 62.7936992 47.7594517 62.7936992 28.4801783 30.7839053 28.4801783 30.7839053 82.8940862 0 117 19.8486676 117"></polygon>
            <path d="M202.433708,184.627037 C197.686867,184.627037 191.296688,186.74263 183.175908,192.344618 C168.330579,202.585304 150.157968,207.094813 133.553526,207.094813 C120.055181,207.094813 107.594505,204.116508 98.7946171,198.817987 C94.4348494,196.19257 94.4478094,195.315986 96.9767512,195.315986 C102.055371,195.315986 117.284318,198.852669 127.604854,198.852669 C132.683473,198.852669 136.572358,197.996894 137.482155,195.441708 C141.687266,183.625598 125.385226,179.820998 108.339277,172.898498 C95.8595931,167.82801 80.6280543,164.000867 66.1231435,164 C60.0759746,164 54.1013821,164.665025 48.5562,166.182356 C23.3782391,173.071041 5.18402818,178.260314 0,179.944985 L0,246.256703 C10.3680564,242.430427 22.3777217,238.763687 29.2119988,238.763687 C41.753891,238.763687 92.5029349,255 121.237139,255 C125.261673,255 128.865437,254.681794 131.862669,253.956076 C156.250929,248.048021 198.59148,213.443328 210.083606,201.628952 C215.60114,195.956733 213.418664,184.627037 202.433708,184.627037 Z" id="Path"></path>
        </g>
    </g>
</svg>