<?xml version="1.0" encoding="UTF-8"?>
<svg width="330px" height="330px" viewBox="0 0 330 330" version="1.1" xmlns="http://www.w3.org/2000/svg" xmlns:xlink="http://www.w3.org/1999/xlink">
    <!-- Generator: Sketch 52.6 (67491) - http://www.bohemiancoding.com/sketch -->
    <title>Artboard Copy 9</title>
    <desc>Created with Sketch.</desc>
    <g id="Artboard-Copy-9" stroke="none" stroke-width="1" fill="none" fill-rule="evenodd">
        <circle id="Oval-Copy-24" fill="#EFEFEF" cx="228.5" cy="102.5" r="102.5"></circle>
        <path d="M278,129.11673 C278,177.545442 46.163413,231 28.6085283,231 C18.7663276,231 7.59953848,228.715566 7.59953848,219.578289 C7.59953848,216.525364 11.0986141,212.11294 17.2386901,206.79342 L17.2318764,206.79708 L0.95797222,177.678556 C-1.2455869,173.736376 0.50145255,168.742093 4.67145312,167.06056 L7.46826069,165.932981 C12.5372189,163.889159 18.2421249,164.193811 23.0676059,166.765971 L52.6114694,182.516396 C64.1144024,175.645712 77.1631427,168.452079 90.9164223,161.369603 L33.3427054,123.755127 C28.7879564,120.779051 28.836561,114.048343 33.4340093,111.139967 L38.143657,108.160231 C45.9821679,103.201171 55.5113914,101.736462 64.4619024,104.113755 L160.240183,129.554496 C190.103384,117.61817 217.103456,109.471242 233.084824,109.471242 C237.352942,109.471242 241.62742,109.585143 245.75245,109.882019 L216.828181,123.031006 L216.135907,132.828363 L260.783985,112.160048 C271.486532,114.730379 278,119.527507 278,129.11673 Z M160.942589,212.054664 L197.207834,252.487545 C199.417926,254.951695 203.017337,255.693429 206.050047,254.309975 L210.9069,252.094277 C219.763869,248.053885 224.980387,238.892405 223.84606,229.372051 L219.305988,191.273437 C219.024712,188.916089 216.587294,187.424022 214.306191,188.212369 L162.52004,206.116265 C159.999622,206.988334 159.176083,210.085606 160.942589,212.054664 Z" id="Shape" fill="#3E70FE" fill-rule="nonzero"></path>
    </g>
</svg>