<?xml version="1.0" encoding="UTF-8"?>
<svg width="330px" height="330px" viewBox="0 0 330 330" version="1.1" xmlns="http://www.w3.org/2000/svg" xmlns:xlink="http://www.w3.org/1999/xlink">
    <!-- Generator: Sketch 52.6 (67491) - http://www.bohemiancoding.com/sketch -->
    <title>Artboard Copy 17</title>
    <desc>Created with Sketch.</desc>
    <g id="Artboard-Copy-17" stroke="none" stroke-width="1" fill="none" fill-rule="evenodd">
        <circle id="Oval-Copy-24" fill="#EFEFEF" cx="228.5" cy="102.5" r="102.5"></circle>
        <g id="Group-33" transform="translate(16.000000, 96.000000)" fill="#3E70FE">
            <path d="M183.59375,0 C153.975098,0 134.963379,20.5428521 125,39.0442301 C115.036621,20.5423631 96.0249023,0 66.40625,0 C28.8266602,0 0,30.5345839 0,71.0325391 C0,81.5993065 2.11279297,91.3548631 6.00292969,100.729018 L61.8789062,100.729018 L74.5029297,75.4445679 C76.9921875,70.4736398 85.1171875,70.4736398 87.6064453,75.4445679 L110.351562,121 L118.448242,104.783606 C120.9375,99.8126778 129.0625,99.8126778 131.551758,104.783606 L139.648438,121 L162.393555,75.4450569 C164.882812,70.4741287 173.007812,70.4741287 175.49707,75.4450569 L188.121094,100.729018 L243.99707,100.729018 C247.887207,91.3548631 250,81.5993065 250,71.0325391 C250,30.5345839 221.17334,0 183.59375,0 Z" id="Path"></path>
            <path d="M183.194482,116.112982 C180.414343,116.112982 177.878274,114.556537 176.631515,112.090386 L168.520984,96 L145.736954,141.200962 C144.490196,143.667113 141.954126,145.223559 139.173987,145.223559 C136.393849,145.223559 133.857779,143.667113 132.611021,141.200962 L124.500489,125.110576 L116.389958,141.200962 C113.896441,146.133264 105.757541,146.133264 103.264024,141.200962 L80.4799945,96 L72.3694629,112.090386 C71.1227047,114.556537 68.5866351,116.112982 65.8064963,116.112982 L13,116.112982 C28.100497,139.679935 55.2958695,162.065483 89.3139295,190.54533 C98.8644204,198.54055 109.024351,207.048116 119.692473,216.223284 C121.075206,217.410026 122.787603,218 124.5,218 C126.212397,218 127.924794,217.410026 129.307527,216.223284 C139.976139,207.048116 150.13558,198.541035 159.68607,190.54533 C193.70462,162.065483 220.899503,139.679935 236,116.112982 L183.194482,116.112982 Z" id="Path"></path>
        </g>
    </g>
</svg>