<?xml version="1.0" encoding="UTF-8"?>
<svg width="330px" height="330px" viewBox="0 0 330 330" version="1.1" xmlns="http://www.w3.org/2000/svg" xmlns:xlink="http://www.w3.org/1999/xlink">
    <!-- Generator: Sketch 52.6 (67491) - http://www.bohemiancoding.com/sketch -->
    <title>Artboard Copy 19</title>
    <desc>Created with Sketch.</desc>
    <g id="Artboard-Copy-19" stroke="none" stroke-width="1" fill="none" fill-rule="evenodd">
        <circle id="Oval-Copy-24" fill="#EFEFEF" cx="228.5" cy="102.5" r="102.5"></circle>
        <g id="Group-29" transform="translate(33.000000, 80.000000)" fill="#3E70FE">
            <path d="M227.991838,47.8881376 L180.152627,34 L180.152627,219.203262 C180.152627,220.128775 180.098781,221.040307 180,221.939798 C185.864899,222.52004 191.493109,218.859155 193.190986,212.977505 L236.504463,63.3771843 C238.420821,56.7440149 234.609799,49.8075195 227.991838,47.8881376 Z" id="Path"></path>
            <path d="M70,54 C65.0689913,56.1234836 60.6581769,59.2034016 57,63 L65.9109437,63 C67.0656855,59.6408607 68.4412855,56.622541 70,54 Z" id="Path"></path>
            <path d="M64,72 L51.0002345,72 C48.3255388,76.8248922 46.5724639,82.2375806 46,88 L62.1091808,88 C62.323663,82.2965153 62.9720973,76.9206611 64,72 Z" id="Path"></path>
            <path d="M117,63 C113.341613,59.2038282 108.931292,56.1236577 104,54 C105.558804,56.6220182 106.934483,59.6405853 108.089291,63 L117,63 Z" id="Path"></path>
            <path d="M57,121 C60.6581769,124.796598 65.0689913,127.876516 70,130 C68.4412855,127.377459 67.0656855,124.359139 65.9109437,121 L57,121 Z" id="Path"></path>
            <path d="M104,88 C103.743258,82.1708913 102.959906,76.7733243 101.80592,72 L73.1940801,72 C72.0397075,76.7733243 71.2559696,82.171279 71,88 L104,88 Z" id="Path"></path>
            <path d="M87.9990082,51 C83.7836658,51 79.3080877,55.5262873 76,63 L100,63 C96.6911189,55.5262873 92.2159375,51 87.9990082,51 Z" id="Path"></path>
            <path d="M62.1087971,96 L46,96 C46.5724639,101.762419 48.3255388,107.175883 51.0002345,112 L64,112 C62.972481,107.079339 62.3240466,101.703097 62.1087971,96 Z" id="Path"></path>
            <path d="M110.891283,88 L127,88 C126.427512,82.2375806 124.674362,76.8241167 121.999552,72 L109,72 C110.027179,76.9210488 110.676792,82.296903 110.891283,88 Z" id="Path"></path>
            <path d="M87.9994049,133 C92.2155408,133 96.6915156,128.473713 100,121 L76,121 C79.3084844,128.473713 83.7840625,133 87.9994049,133 Z" id="Path"></path>
            <path d="M109,112 L121.999552,112 C124.674362,107.175108 126.427512,101.762419 127,96 L110.891283,96 C110.677176,101.703097 110.027563,107.079339 109,112 Z" id="Path"></path>
            <path d="M43.2979192,170 L36,170 L36,183 L43.2979192,183 C49.072519,183 52,180.776594 52,176.390534 C52,172.149688 49.0729149,170 43.2979192,170 Z" id="Path"></path>
            <polygon id="Path" points="67 184 77 184 71.9509149 173"></polygon>
            <path d="M154.358341,0 L18.642431,0 C8.36327353,0 0,8.39103922 0,18.7051863 L0,218.295201 C0,228.608961 8.36327353,237 18.642431,237 L154.358341,237 C164.637498,237 173,228.608961 173,218.294814 L173,18.7051863 C172.999614,8.39103922 164.637498,0 154.358341,0 Z M86.4992281,42.4051863 C113.799803,42.4051863 136.010394,64.6905441 136.010394,92.0830196 C136.010394,119.475495 113.799803,141.761627 86.4992281,141.761627 C59.1994253,141.761627 36.989606,119.47627 36.989606,92.0830196 C36.989606,64.6917059 59.1994253,42.4051863 86.4992281,42.4051863 Z M36.3377268,189.39824 L36.3377268,197.280426 C36.3377268,199.001775 34.9467426,200.397828 33.2307836,200.397828 L32.9386152,200.397828 C31.2230422,200.397828 29.831672,199.002162 29.831672,197.280426 L29.831672,165.869407 C29.831672,164.148059 31.2226563,162.752005 32.9386152,162.752005 L43.4532057,162.752005 C52.6995458,162.752005 58.4437241,167.814201 58.4437241,175.962044 C58.4437241,184.250074 52.6995458,189.397853 43.4532057,189.397853 L36.3377268,189.397853 L36.3377268,189.39824 Z M88.6532467,198.958015 C88.0824183,199.854897 87.0947577,200.397828 86.0345375,200.397828 L85.6705813,200.397828 C84.4575226,200.397828 83.3556191,199.689152 82.8484734,198.583539 L79.203508,190.635132 L63.4279557,190.635132 L59.8269892,198.571534 C59.3221592,199.683343 58.2171681,200.397054 56.999478,200.397054 L56.5868913,200.397054 C55.5289868,200.397054 54.5440279,199.857221 53.9720416,198.964211 C53.4008272,198.071201 53.3213204,196.947387 53.7616958,195.981961 L68.0930019,164.570941 C68.5993758,163.46223 69.7028231,162.751618 70.9181975,162.751618 L71.2157693,162.751618 C71.2173131,162.751618 71.2196289,162.751618 71.2211727,162.751618 L71.5253058,162.751618 C72.7356628,162.751618 73.8352505,163.456422 74.344326,164.558162 L88.8543296,195.969181 C89.2993365,196.934221 89.2236892,198.061132 88.6532467,198.958015 Z M102.463127,200.397828 C97.889552,200.397828 93.0488959,198.460779 89.8300256,195.342603 C89.2306364,194.760946 88.8879078,193.962039 88.8817325,193.125956 C88.8747853,192.289098 89.2032336,191.48477 89.7929738,190.894206 L89.9898112,190.696706 C91.202098,189.483049 93.1639107,189.482275 94.3765834,190.694382 C96.2793449,192.594255 99.5290917,193.871034 102.463513,193.871034 C105.746066,193.871034 109.578606,192.806471 109.578606,189.80602 C109.603693,186.914387 107.861489,185.924951 102.253939,184.217931 C97.2851454,182.71151 90.4873081,180.64899 90.4873081,172.66302 C90.4873081,166.735309 95.7042709,162.753167 103.468541,162.753167 C106.810146,162.753167 110.516092,163.739505 113.140205,165.328412 C113.851521,165.759039 114.361754,166.458422 114.556276,167.269333 C114.750798,168.080245 114.612239,168.935304 114.173408,169.64398 L114.046428,169.848838 C113.151011,171.292525 111.267162,171.751034 109.812881,170.877 C108.225059,169.923191 105.675436,169.283059 103.468927,169.283059 C100.482402,169.283059 96.9941348,170.168324 96.9941348,172.66302 C96.9941348,175.364123 98.7031465,176.314833 104.193752,177.980804 C109.242438,179.512397 116.147957,181.606672 116.085818,189.826931 C116.086204,196.139961 110.611037,200.397828 102.463127,200.397828 Z M129.547952,200.397828 C124.973606,200.397828 120.132178,198.460779 116.914079,195.341828 C116.31469,194.760946 115.972733,193.963588 115.965786,193.128279 C115.958067,192.292971 116.285357,191.488642 116.873168,190.897304 L117.069233,190.700578 C118.280748,189.482662 120.245649,189.480338 121.460251,190.693608 C123.363013,192.59348 126.613531,193.87026 129.548338,193.87026 C132.830119,193.87026 136.661887,192.805696 136.661887,189.805245 C136.685431,186.913613 134.943999,185.924176 129.33722,184.217157 C124.368427,182.709961 117.57059,180.646667 117.57059,172.662632 C117.57059,166.734922 122.788325,162.752779 130.552595,162.752779 C133.893813,162.752779 137.600145,163.739118 140.22503,165.328025 C140.939434,165.760201 141.450439,166.462681 141.643417,167.276691 C141.836395,168.091475 141.693977,168.948858 141.249742,169.657147 L141.121219,169.862005 C140.22117,171.296397 138.343496,171.746 136.895776,170.876613 C135.308727,169.923578 132.759875,169.282672 130.552595,169.282672 C127.564526,169.282672 124.076259,170.167936 124.076259,172.662632 C124.076259,175.363735 125.786042,176.314446 131.275876,177.980417 C136.325334,179.51201 143.230853,181.606284 143.16717,189.826544 C143.167556,196.139961 137.694319,200.397828 129.547952,200.397828 Z" id="Shape" fill-rule="nonzero"></path>
            <path d="M71,96 C71.2567417,101.829109 72.0400936,107.227451 73.1940801,112 L101.80592,112 C102.95952,107.226676 103.743258,101.829496 104,96 L71,96 Z" id="Path"></path>
            <path d="M104,130 C108.931292,127.876342 113.34236,124.796172 117,121 L108.089291,121 C106.934483,124.359415 105.558804,127.377244 104,130 Z" id="Path"></path>
        </g>
    </g>
</svg>