<?xml version="1.0" encoding="UTF-8"?>
<svg width="330px" height="330px" viewBox="0 0 330 330" version="1.1" xmlns="http://www.w3.org/2000/svg" xmlns:xlink="http://www.w3.org/1999/xlink">
    <!-- Generator: Sketch 52.6 (67491) - http://www.bohemiancoding.com/sketch -->
    <title>Artboard Copy 15</title>
    <desc>Created with Sketch.</desc>
    <g id="Artboard-Copy-15" stroke="none" stroke-width="1" fill="none" fill-rule="evenodd">
        <circle id="Oval-Copy-24" fill="#EFEFEF" cx="228.5" cy="102.5" r="102.5"></circle>
        <g id="Group-37" transform="translate(59.500000, 78.000000)" fill="#3E70FE">
            <polygon id="Path" points="67.0000006 97 61.5 110 72.5 110"></polygon>
            <polygon id="Path" points="45.5 44 45.5 4 5.5 44"></polygon>
            <path d="M166.500062,0 L58.6157991,0 L58.6157991,50.9649808 C58.6157991,54.8199923 55.4821485,57.944504 51.615862,57.944504 L0.5,57.944504 L0.5,230.020477 C0.5,233.875488 3.6336506,237 7.4999371,237 L166.500062,237 C170.366349,237 173.5,233.875488 173.5,230.020477 L173.5,6.97952271 C173.5,3.12451172 170.366349,0 166.500062,0 Z M107.457588,99.6516724 C103.591302,99.6516724 100.457651,96.5271606 100.457651,92.6721497 C100.457651,88.8189467 103.591302,85.692627 107.457588,85.692627 L112.395627,85.692627 L112.395627,80.7689894 C112.395627,76.9139785 115.529277,73.7894667 119.395564,73.7894667 C123.26185,73.7894667 126.395501,76.9139785 126.395501,80.7689894 L126.395501,85.692627 L131.333539,85.692627 C135.199826,85.692627 138.333477,88.8189467 138.333477,92.6721497 C138.333477,96.5271606 135.199826,99.6516724 131.333539,99.6516724 L126.395501,99.6516724 L126.395501,104.577118 C126.395501,108.430321 123.26185,111.556641 119.395564,111.556641 C115.529277,111.556641 112.395627,108.430321 112.395627,104.577118 L112.395627,99.6516724 L107.457588,99.6516724 Z M36.3030463,130.184372 L60.4909116,77.6101224 L60.496352,77.611931 C61.1709574,76.1455078 62.349703,74.9014893 63.9346631,74.1764146 C67.4491395,72.5689547 71.6037651,74.105896 73.2159266,77.6101224 L97.4037924,130.184372 C99.015954,133.688599 97.4745173,137.831108 93.9600408,139.438568 C93.0152308,139.87072 92.0232707,140.075043 91.0458182,140.075043 C88.3945469,140.075043 85.857523,138.565224 84.6787773,136.00486 L77.7676994,120.978996 L55.9409526,120.978996 L49.0280613,136.00486 C47.851129,138.565224 45.3141051,140.075043 42.66102,140.075043 C41.6853813,140.075043 40.6934212,139.87072 39.7467973,139.438568 C36.2323214,137.831108 34.6908847,133.688599 36.3030463,130.184372 Z M42.6664605,153.929214 L131.333539,153.929214 C135.199826,153.929214 138.333477,157.053726 138.333477,160.908737 C138.333477,164.763748 135.199826,167.88826 131.333539,167.88826 L42.6664605,167.88826 C38.800174,167.88826 35.6665234,164.763748 35.6665234,160.908737 C35.6665234,157.053726 38.800174,153.929214 42.6664605,153.929214 Z M42.6664605,175.229416 L101.137697,175.229416 C105.002169,175.229416 108.137634,178.353928 108.137634,182.208938 C108.137634,186.06395 105.002169,189.188462 101.137697,189.188462 L42.6664605,189.188462 C38.800174,189.188462 35.6665234,186.06395 35.6665234,182.208938 C35.6665234,178.353928 38.800174,175.229416 42.6664605,175.229416 Z" id="Shape" fill-rule="nonzero"></path>
        </g>
    </g>
</svg>