<?xml version="1.0" encoding="UTF-8"?>
<svg width="330px" height="330px" viewBox="0 0 330 330" version="1.1" xmlns="http://www.w3.org/2000/svg" xmlns:xlink="http://www.w3.org/1999/xlink">
    <!-- Generator: Sketch 53 (72520) - https://sketchapp.com -->
    <title>Artboard Copy 37</title>
    <desc>Created with Sketch.</desc>
    <g id="Artboard-Copy-37" stroke="none" stroke-width="1" fill="none" fill-rule="evenodd">
        <circle id="Oval-Copy-24" fill="#EFEFEF" cx="228.5" cy="102.5" r="102.5"></circle>
        <g id="Group-15-Copy" transform="translate(14.000000, 74.000000)" fill="#3E70FE" fill-rule="nonzero">
            <g id="Group">
                <g id="theater" transform="translate(0.000000, 0.135934)">
                    <path d="M76.6669007,245.213781 C77.4908548,245.529156 78.3502283,245.682178 79.217058,245.682178 C80.0857517,245.682178 80.9451253,245.529156 81.7690794,245.213781 C128.052198,227.53785 157.956894,182.693012 157.956894,133.065297 L157.956894,66.0602305 C157.956894,63.1640052 156.217641,60.5458329 153.538858,59.4410872 C150.861938,58.3214125 147.786091,58.9372334 145.73739,60.9955688 C133.51975,73.2261485 105.913551,73.2261485 79.217058,73.2261485 C52.5205647,73.2261485 24.4390079,73.2261485 12.2195039,60.9955688 C10.1782595,58.9372334 7.10986866,58.328877 4.41803546,59.4410872 C1.74111642,60.5458329 0,63.1640052 0,66.0602305 L0,133.065297 C0,182.693012 30.3837824,227.53785 76.6669007,245.213781 Z M88.4725631,118.321047 C99.1541433,107.628154 116.546663,107.628154 127.228243,118.321047 C130.022604,121.120234 130.022604,125.654916 127.228243,128.454103 C124.432018,131.25329 119.902134,131.25329 117.105908,128.454103 C112.001865,123.344655 103.697077,123.344655 98.5948978,128.454103 C95.7986731,131.25329 91.2687882,131.25329 88.4725631,128.454103 C85.6763379,125.654916 85.6763379,121.120234 88.4725631,118.321047 Z M108.074101,150.280295 C109.058373,146.458472 112.932076,144.150077 116.770361,145.122327 C120.593733,146.102043 122.907143,149.96492 121.94897,153.784877 C119.007341,165.576918 106.284517,187.878972 79.217058,187.878972 C52.1495988,187.878972 39.4286386,165.576918 36.4851455,153.784877 C35.52138,149.949991 37.8552959,146.059122 41.6935811,145.1018 C45.5020393,144.099691 49.4037058,146.465937 50.3674713,150.313886 C50.6135391,151.230153 56.6738907,173.547136 79.217058,173.547136 C101.762089,173.547136 107.822441,151.230153 108.074101,150.280295 Z M31.2077365,118.321047 C41.8893167,107.628154 59.2818368,107.628154 69.9615525,118.321047 C72.7577781,121.120234 72.7577781,125.654916 69.9615525,128.454103 C68.5634401,129.853697 66.732845,130.553493 64.9022494,130.553493 C63.0697897,130.553493 61.2391946,129.853697 59.8410818,128.454103 C54.7370391,123.344655 46.4322503,123.344655 41.3300717,128.454103 C38.5338465,131.25329 34.0039616,131.25329 31.2077365,128.454103 C28.4115113,125.654916 28.4115113,121.120234 31.2077365,118.321047 Z" id="Shape"></path>
                    <path d="M240.41696,1.12975521 C237.753058,0.0107247777 234.671581,0.626191275 232.6154,2.6814774 C220.395752,14.906885 192.313864,14.906885 165.617056,14.906885 C138.920247,14.906885 111.315587,14.906885 99.095939,2.6814774 C97.0472143,0.639246749 93.9787868,0.0181849806 91.294379,1.12975521 C88.6174279,2.23386523 86.8762915,4.8505315 86.8762915,7.74509021 L86.8762915,58.340186 C106.863944,58.2581238 128.958112,57.4878575 136.116532,50.3260627 C140.158057,46.2695778 145.554836,44.0240567 151.292757,44.0240567 C154.144941,44.0240567 156.928149,44.5835719 159.556632,45.6820867 C167.56698,48.9906869 172.775477,56.7810036 172.775477,65.5169011 L172.775477,87.7408454 C194.875236,91.2863067 205.683706,110.401211 208.349472,121.074897 C209.313249,124.907576 206.979305,128.796207 203.140975,129.754843 C199.379076,130.706019 195.458722,128.443712 194.472575,124.579327 C194.250739,123.738189 189.443039,106.275719 172.775477,102.215504 L172.775477,132.481547 C172.775477,151.193601 168.691075,168.986184 161.674332,185.299783 C162.145967,185.486288 162.591504,185.732475 163.065004,185.913385 C164.640229,186.521391 166.482032,186.556828 168.167243,185.913385 C214.450907,168.247624 244.833184,124.788213 244.833184,75.1890539 L244.833184,7.74509021 C244.835048,4.8505315 243.093911,2.23386523 240.41696,1.12975521 Z M220.785364,64.6496522 C215.446375,69.9911574 208.427767,72.6637755 201.40916,72.6637755 C194.390551,72.6637755 187.371944,69.9911574 182.031091,64.6496522 C179.234833,61.8520766 179.234833,57.3181382 182.031091,54.5224271 C184.827349,51.724851 189.357287,51.724851 192.153545,54.5224271 C197.255784,59.6270707 205.56067,59.6270707 210.664774,54.5224271 C213.461032,51.724851 217.99097,51.724851 220.787228,54.5224271 C223.581622,57.3181382 223.581622,61.8502112 220.785364,64.6496522 Z" id="Shape"></path>
                </g>
            </g>
        </g>
    </g>
</svg>