<?xml version="1.0" encoding="UTF-8"?>
<svg width="330px" height="330px" viewBox="0 0 330 330" version="1.1" xmlns="http://www.w3.org/2000/svg" xmlns:xlink="http://www.w3.org/1999/xlink">
    <!-- Generator: Sketch 52.6 (67491) - http://www.bohemiancoding.com/sketch -->
    <title>Artboard Copy 18</title>
    <desc>Created with Sketch.</desc>
    <g id="Artboard-Copy-18" stroke="none" stroke-width="1" fill="none" fill-rule="evenodd">
        <circle id="Oval-Copy-24" fill="#EFEFEF" cx="228.5" cy="102.5" r="102.5"></circle>
        <g id="Group-30" transform="translate(46.000000, 87.000000)" fill="#3E70FE">
            <path d="M115.088512,208.69398 C115.088512,202.787567 110.345776,198 104.496536,198 L24.5040406,198 C18.6548006,198 13.9120645,202.788149 13.9120645,208.69398 C13.9120645,210.55484 14.3839728,212.304457 15.2129853,213.828674 L0,213.828674 L0,236 L129,236 L129,213.828674 L113.787592,213.828674 C114.616027,212.303875 115.088512,210.55484 115.088512,208.69398 Z" id="Path"></path>
            <path d="M101.46098,25.8172046 L168.965523,68.7431995 C174.215178,71.4221795 180.737059,69.7113943 183.95853,64.6298141 L187.197863,59.5234233 C190.619272,54.1262278 189.024957,46.9738186 183.635864,43.5464783 L117.994139,1.8050507 C112.605622,-1.62171261 105.463187,-0.0251721018 102.040626,5.37202339 L98.8012929,10.4789913 C95.5803979,15.5599944 96.8065275,22.1983025 101.46098,25.8172046 Z" id="Path"></path>
            <path d="M284.969588,190.697983 L284.92208,189.672658 L284.837493,188.704648 C284.79404,188.042905 284.701342,187.454689 284.620231,186.849683 C284.294628,184.431396 283.739017,182.373797 283.060002,180.512463 C281.682852,176.815269 279.735608,174.015452 277.343991,171.917905 C276.748984,171.389321 276.112262,170.92558 275.479596,170.454312 L273.584494,169.03993 C272.326114,168.08871 271.042822,167.176859 269.76822,166.252271 C268.495935,165.322473 267.208008,164.417569 265.918921,163.514402 C264.633891,162.604867 263.343646,161.705174 262.042393,160.821692 C259.453792,159.033306 256.837961,157.289499 254.215177,155.551483 L250.268546,152.967036 L246.299898,150.416748 C243.646408,148.731416 240.988863,147.051294 238.313357,145.398962 C235.641907,143.740262 232.960029,142.097193 230.262507,140.480178 L222.163569,135.638393 L214.010751,130.8794 L205.813321,126.192196 L197.575336,121.568098 L189.297954,117.004791 L180.981755,112.504589 C178.199646,111.018995 175.420434,109.530507 172.619786,108.073861 C169.82609,106.609689 167.034132,105.137991 164.220158,103.703924 L161.672113,107.71491 L148.8276,101.66543 L163.184833,79.0712098 L95.3087956,36 L60,91.564437 L127.876617,134.635647 L142.233851,112.041426 L153.17631,121.08583 L150.627685,125.097396 C153.124167,127.032836 155.643245,128.929486 158.158266,130.83482 C160.667494,132.74826 163.19758,134.628699 165.725927,136.513191 L173.338777,142.12093 L180.992763,147.665563 L188.683828,153.150564 L196.416028,158.570144 L204.192259,163.920827 L212.021792,169.186405 C214.634727,170.938317 217.262145,172.665334 219.902309,174.37614 C222.53668,176.093894 225.187853,177.781542 227.84366,179.466295 L231.840117,181.969688 L235.85859,184.439501 C238.548579,186.070991 241.240307,187.696112 243.961003,189.277812 C245.314978,190.078504 246.677644,190.863564 248.048421,191.638782 C249.414562,192.41979 250.782442,193.200218 252.165385,193.954594 C253.546011,194.71418 254.917367,195.486504 256.313056,196.219458 L258.400507,197.332206 C259.096324,197.702736 259.787506,198.082529 260.519243,198.395743 C263.436923,199.665966 266.800135,200.236813 270.733441,199.909126 C272.708495,199.732545 274.808692,199.3597 277.137737,198.626166 C277.720578,198.442638 278.291832,198.275321 278.911172,198.033897 L279.823092,197.698104 L280.772671,197.304416 C282.038582,196.777569 283.393137,196.110036 284.862405,195.265344 C285.002612,193.576538 285.030421,192.067786 284.969588,190.697983 Z" id="Path"></path>
            <path d="M39.3646409,127.454233 L105.005297,169.195151 C110.394973,172.62139 117.537418,171.025402 120.959407,165.6287 L124.198168,160.521076 C127.42022,155.438841 126.192936,148.801584 121.539054,145.182626 L54.0350009,102.256546 C48.7853386,99.5781013 42.2634501,101.288336 39.0413986,106.370571 L35.8032138,111.477041 C32.3800722,116.87432 33.9749647,124.027417 39.3646409,127.454233 Z" id="Path"></path>
        </g>
    </g>
</svg>