<?xml version="1.0" encoding="UTF-8"?>
<svg width="330px" height="330px" viewBox="0 0 330 330" version="1.1" xmlns="http://www.w3.org/2000/svg" xmlns:xlink="http://www.w3.org/1999/xlink">
    <!-- Generator: Sketch 52.6 (67491) - http://www.bohemiancoding.com/sketch -->
    <title>Artboard Copy 10</title>
    <desc>Created with Sketch.</desc>
    <g id="Artboard-Copy-10" stroke="none" stroke-width="1" fill="none" fill-rule="evenodd">
        <circle id="Oval-Copy-24" fill="#EFEFEF" cx="228.5" cy="102.5" r="102.5"></circle>
        <g id="Group-28" transform="translate(9.000000, 49.000000)" fill="#3E70FE" fill-rule="nonzero">
            <path d="M69,136 C107.09851,136 138,105.558957 138,68.0281341 C138,30.4973107 107.09851,0 69,0 C30.9014901,0 0,30.4410426 0,67.9718659 C0,105.502689 30.9014901,136 69,136 Z M44.8956954,94.8680182 C45.5240066,92.6172942 46.1523179,90.4228382 46.8377483,88.1721142 C47.6374172,85.5837815 48.3799669,85.302441 50.7789735,86.5403393 C54.8915563,88.622259 59.2326159,89.8038891 63.8021523,90.3665701 C66.7152318,90.7041787 69.6283113,90.4228382 72.3129139,89.2412081 C77.3965232,87.0467522 78.1961921,81.2511378 73.9122517,77.7625155 C72.4271523,76.5808854 70.7706954,75.6805958 69.0571192,74.9491105 C64.6018212,73.035995 59.9751656,71.5730244 55.7483444,69.097228 C48.9511589,65.1021928 44.6100993,59.5316508 45.1241722,51.3727762 C45.6953642,42.1448076 51.0074503,36.3491932 59.5753311,33.3107158 C63.1167219,32.0165494 63.1167219,32.0728175 63.1738411,28.415391 C63.1738411,27.1774928 63.1738411,25.9395945 63.1738411,24.7016963 C63.2309603,21.9445594 63.7450331,21.4944146 66.486755,21.3818784 C67.343543,21.3818784 68.2003311,21.3818784 69.0571192,21.3818784 C74.9975166,21.3818784 74.9975166,21.3818784 74.9975166,27.2337609 C74.9975166,31.3413322 74.9975166,31.3976003 79.1672185,32.0165494 C82.365894,32.5229624 85.3932119,33.423252 88.3634106,34.7174183 C90.0198675,35.4489036 90.5910596,36.5742656 90.134106,38.2623086 C89.3915563,40.7943732 88.7061258,43.3264377 87.8493377,45.8022342 C87.0496689,48.1654944 86.3071192,48.503103 84.022351,47.4340091 C79.3956954,45.2395532 74.5405629,44.2829954 69.3998344,44.564336 C68.0289735,44.6206041 66.772351,44.7894084 65.5157285,45.3520894 C61.1175497,47.2652048 60.375,52.0479934 64.1448675,55.0302027 C66.0298013,56.5494415 68.2003311,57.6185354 70.4850993,58.518825 C74.3692053,60.0943318 78.3104305,61.6698386 82.080298,63.6954903 C93.9039735,70.1663219 97.102649,84.7960281 88.763245,94.755482 C85.7359272,98.3566405 81.8518212,100.776169 77.2251656,102.014067 C75.2259934,102.576748 74.3120861,103.589574 74.4263245,105.615225 C74.5405629,107.640877 74.4263245,109.610261 74.4263245,111.635912 C74.4263245,113.436492 73.5124172,114.393049 71.6846026,114.449317 C69.5140728,114.505585 67.2864238,114.505585 65.115894,114.449317 C63.1738411,114.393049 62.2599338,113.323955 62.2599338,111.467108 C62.2599338,110.004137 62.2599338,108.541167 62.2028146,107.078196 C62.1456954,103.870914 62.0885762,103.70211 58.8899007,103.195697 C54.8344371,102.576748 50.8932119,101.676458 47.1804636,99.8758792 C44.3816225,98.5817129 44.0960265,97.8502276 44.8956954,94.8680182 Z" id="Shape"></path>
            <path d="M223.960959,141.980329 L215.937739,141.980329 C210.645828,125.867005 200.289615,111.562896 186.462363,100.481452 C186.462363,99.9726099 186.348558,99.4072301 186.234754,98.8983882 C183.332738,88.7780898 186.917581,79.562399 191.071447,72.9474553 C193.973463,68.3113409 190.217913,62.374853 184.755295,63.0533088 C172.521306,64.5798342 164.09977,69.0463347 158.295739,74.0782149 C154.31258,77.5270317 151.467466,82.1631461 150.215616,87.3081023 C141.452666,123.379334 108.733861,150.234874 69.7558051,150.234874 C50.8073488,150.234874 33.3952539,143.90262 19.4541975,133.27348 C14.6175045,143.676469 12,155.040603 12,166.970116 C12,173.415446 12.7966318,179.691162 14.2760908,185.740726 C14.2760908,185.740726 14.2760908,185.853802 14.3329931,186.023416 C15.8693544,192.299132 18.2023475,198.348695 21.1612656,204.059031 C25.0875223,212.48319 30.7777494,222.320799 38.6302628,230.292654 C49.9538147,241.88294 51.888492,256.243587 52.1730033,262.462765 L52.1730033,265.12005 C52.1730033,265.233126 52.1730033,265.346202 52.1730033,265.459278 C52.1730033,265.515816 52.1730033,265.515816 52.1730033,265.515816 C52.4006124,268.568867 54.9612146,271 58.0908395,271 L94.0530748,271 C97.2965042,271 99.9709109,268.399253 99.9709109,265.12005 L99.9709109,256.300125 C105.20592,256.978581 110.554733,257.374347 115.960449,257.374347 C120.228119,257.374347 124.381985,257.148195 128.535851,256.695891 L128.535851,265.12005 C128.535851,268.342715 131.153355,271 134.453687,271 L170.529727,271 C173.773156,271 176.447563,268.399253 176.447563,265.12005 L176.447563,256.300125 C176.504465,253.36015 177.528706,241.656788 188.681551,231.649566 C189.079867,231.310338 189.478183,230.97111 189.876499,230.631882 C189.990304,230.518806 190.104108,230.462268 190.217913,230.349192 C202.622608,219.380824 211.783873,205.698633 216.506762,190.433378 L224.074764,190.433378 C230.106405,190.433378 235,185.571112 235,179.578086 L235,152.835621 C234.886195,146.842595 229.9926,141.980329 223.960959,141.980329 Z M178.951263,143.90262 C174.000766,143.90262 170.017607,139.944962 170.017607,135.026158 C170.017607,130.107353 174.000766,126.149695 178.951263,126.149695 C183.901761,126.149695 187.88492,130.107353 187.88492,135.026158 C187.88492,139.944962 183.901761,143.90262 178.951263,143.90262 Z" id="Shape"></path>
        </g>
    </g>
</svg>