<?xml version="1.0" encoding="UTF-8"?>
<svg width="330px" height="330px" viewBox="0 0 330 330" version="1.1" xmlns="http://www.w3.org/2000/svg" xmlns:xlink="http://www.w3.org/1999/xlink">
    <!-- Generator: Sketch 52.6 (67491) - http://www.bohemiancoding.com/sketch -->
    <title>Artboard Copy 9dfdfd</title>
    <desc>Created with Sketch.</desc>
    <g id="Artboard-Copy-9" stroke="none" stroke-width="1" fill="none" fill-rule="evenodd">
        <circle id="Oval-Copy-24" fill="#EFEFEF" cx="228.5" cy="102.5" r="102.5"></circle>
        <path d="M312.713371,160.060102 C312.713371,214.164054 53.3566138,273.882817 33.7178759,273.882817 C22.7073564,273.882817 10.2150132,271.330677 10.2150132,261.122625 C10.2150132,257.711935 14.1294467,252.78243 20.9983807,246.839529 L20.9907581,246.843618 L2.78505958,214.312767 C0.319926891,209.908612 2.27434872,204.329062 6.93934936,202.450474 L10.0681521,201.190757 C15.7388211,198.907424 22.1209282,199.247778 27.5192182,202.121364 L60.570087,219.717541 C73.438476,212.041699 88.0361675,204.005062 103.422031,196.092608 L39.0140236,154.070186 C33.918603,150.745351 33.9729772,143.225888 39.1161658,139.976687 L44.3848724,136.647763 C53.153854,131.107563 63.8142443,129.471209 73.8272261,132.127091 L180.974871,160.549169 C214.382984,147.214055 244.588101,138.112408 262.466538,138.112408 C267.241303,138.112408 272.023183,138.239657 276.637875,138.571323 L244.28015,153.261208 L243.505698,164.206692 L293.453728,141.116309 C305.426722,143.987851 312.713371,149.347142 312.713371,160.060102 Z M181.717871,253.182723 L222.516272,298.443412 C225.002625,301.201789 229.051963,302.032088 232.463761,300.483446 L237.927721,298.003186 C247.891811,293.480359 253.760394,283.224971 252.484276,272.567858 L247.376695,229.920156 C247.060259,227.281334 244.318164,225.61111 241.751923,226.493588 L183.492504,246.535262 C180.657034,247.511459 179.730552,250.978555 181.717871,253.182723 Z" id="Shape" fill="#3E70FE" fill-rule="nonzero" transform="translate(157.213371, 216.069339) rotate(-12.000000) translate(-157.213371, -216.069339) "></path>
    </g>
</svg>