<?xml version="1.0" encoding="UTF-8"?>
<svg width="319px" height="403px" viewBox="0 0 319 403" version="1.1" xmlns="http://www.w3.org/2000/svg" xmlns:xlink="http://www.w3.org/1999/xlink">
    <!-- Generator: Sketch 53 (72520) - https://sketchapp.com -->
    <title>illustration</title>
    <desc>Created with Sketch.</desc>
    <defs>
        <rect id="path-1" x="0" y="315" width="131" height="54" rx="4"></rect>
        <filter x="-5.3%" y="-9.3%" width="110.7%" height="125.9%" filterUnits="objectBoundingBox" id="filter-2">
            <feOffset dx="0" dy="2" in="SourceAlpha" result="shadowOffsetOuter1"></feOffset>
            <feGaussianBlur stdDeviation="2" in="shadowOffsetOuter1" result="shadowBlurOuter1"></feGaussianBlur>
            <feColorMatrix values="0 0 0 0 0   0 0 0 0 0   0 0 0 0 0  0 0 0 0.184952446 0" type="matrix" in="shadowBlurOuter1"></feColorMatrix>
        </filter>
        <rect id="path-3" x="0" y="152" width="131" height="42" rx="4"></rect>
        <filter x="-5.3%" y="-11.9%" width="110.7%" height="133.3%" filterUnits="objectBoundingBox" id="filter-4">
            <feOffset dx="0" dy="2" in="SourceAlpha" result="shadowOffsetOuter1"></feOffset>
            <feGaussianBlur stdDeviation="2" in="shadowOffsetOuter1" result="shadowBlurOuter1"></feGaussianBlur>
            <feColorMatrix values="0 0 0 0 0   0 0 0 0 0   0 0 0 0 0  0 0 0 0.0855695199 0" type="matrix" in="shadowBlurOuter1"></feColorMatrix>
        </filter>
    </defs>
    <g id="illustration" stroke="none" stroke-width="1" fill="none" fill-rule="evenodd">
        <rect fill="#FFFFFF" x="0" y="0" width="319" height="403"></rect>
        <g id="Group-2-Copy" transform="translate(17.000000, 0.000000)">
            <g id="Mobile3">
                <g id="Group" transform="translate(0.000000, 218.000000)" fill="#89C5CC">
                    <path d="M12.139863,0 C10.8150371,0 9.4942504,0.0266022626 8.17108772,0.095441451 C7.1624999,0.14817927 5.62122565,-0.0609051802 4.76778691,0.567748289 C3.88108497,1.22067049 3.94214671,2.55731751 4.08066419,3.50123112 C4.81292983,8.49288902 6.60011418,12.9191321 10.3388981,16.4555996 C16.0955705,21.9011294 22.6949899,24.6679981 30.5042395,25.9001029 C35.9898168,26.7656098 41.0539017,25.563841 45.0920545,21.6628758 C48.0425006,27.1389749 50.2808765,33.1989237 51.4039848,39.3151105 C51.9580547,42.3330672 52.1272219,45.3146208 52.0298082,48.3876489 C51.9670833,50.3559829 51.8585027,52.31965 51.647519,54.2786499 C51.5560451,55.1299223 51.1219604,56.4184986 51.4553052,57.222867 C51.8463854,58.1674807 53.1652714,58.2589551 53.7573564,57.4534199 C54.250127,56.7829963 54.1596035,55.4664176 54.2608187,54.6730168 C54.4285603,53.355038 54.583947,52.0361258 54.6951411,50.7120799 C54.8757128,48.5689643 55.0092408,46.4197815 54.9994994,44.2684985 C54.9769279,39.4350541 53.9022889,34.582708 52.4322929,29.9945178 C49.6122862,21.1922025 45.0366951,13.3692704 37.9205081,7.23138172 C33.5449714,3.45712737 28.5371962,1.92866404 22.8556037,1.10819426 C19.3182997,0.597384143 15.7232603,0 12.139863,0" id="Fill-16"></path>
                    <path d="M32.5712675,35 C18.2723696,35 8.64204555,46.5241625 4.08868149,58.5015953 C2.37224237,63.0163306 1.96994464,67.9738742 1.30842479,72.7144486 C1.09603594,74.2357354 1.17471582,76.5539408 0.557219238,77.9092029 C0.333122071,78.4006816 -0.180638832,78.5773956 0.0650016363,79.2469528 C0.213697249,79.6524625 0.505468481,79.9008173 0.943593663,79.9813279 C1.84302649,80.1468978 3.11478377,79.1673519 3.88589345,78.780719 C10.2819123,75.5730304 14.484261,70.6132124 17.9124559,64.5448952 C20.0375153,60.7836392 22.1937187,56.8791017 23.4561093,52.7498622 C24.227219,50.2274235 24.6761159,47.5708006 24.9397871,44.953978 C25.0435228,43.9234876 25.1439802,42.8684346 25.1378918,41.8315761 C25.1318035,40.8029052 24.6531676,40.2591173 24.3091772,39.363721 C29.080316,37.5576904 34.465673,37.0655295 39.2986316,38.9370602 C43.7686325,40.6680385 47.4818078,44.0130955 49.5609705,48.2155678 C50.1011922,49.3079195 50.5177741,50.460313 50.8212537,51.6356771 C51.0198267,52.4055314 51.0294275,53.4044089 51.397537,54.1003482 C52.290179,55.7876597 54.1681928,54.6596013 53.9878848,53.088962 C53.4851297,48.7075013 50.9786134,44.3087559 47.774984,41.2625435 C43.7344442,37.4207769 38.2575282,35 32.5712675,35" id="Fill-18"></path>
                </g>
                <rect id="Container" fill="#DDE3E9" x="48" y="0" width="159" height="302" rx="8"></rect>
                <g id="Camera" transform="translate(112.000000, 16.000000)" fill="#FFFFFF">
                    <circle id="Lens" cx="2" cy="2" r="2"></circle>
                    <rect id="Sensor" x="9" y="0" width="21" height="4" rx="2"></rect>
                </g>
                <g id="Rows" transform="translate(62.000000, 28.000000)">
                    <g id="Row">
                        <rect id="Container" fill="#FFFFFF" x="0" y="0" width="131" height="54" rx="4"></rect>
                        <g id="Container-Copy-2">
                            <use fill="black" fill-opacity="1" filter="url(#filter-2)" xlink:href="#path-1"></use>
                            <use fill="#FFFFFF" fill-rule="evenodd" xlink:href="#path-1"></use>
                        </g>
                        <g id="Text-Stuff" transform="translate(9.000000, 16.200000)" fill="#DDE3E9">
                            <rect id="Label" x="0" y="0" width="73" height="8.1" rx="3"></rect>
                            <rect id="Label-Copy-3" x="0" y="315" width="73" height="8.1" rx="3"></rect>
                            <rect id="Label" x="0" y="14" width="49" height="8.1" rx="3"></rect>
                            <rect id="Label-Copy-4" x="0" y="328" width="49" height="8.1" rx="3"></rect>
                        </g>
                        <g id="Check" transform="translate(110.000000, 20.000000)">
                            <circle id="Background" fill="#DDE3E9" cx="7" cy="7" r="7"></circle>
                            <circle id="Indicator" fill="#F2F2F2" cx="7" cy="7" r="3"></circle>
                        </g>
                    </g>
                    <g id="Row" transform="translate(0.000000, 62.000000)">
                        <rect id="Background" fill="#FFFFFF" x="0" y="0" width="131" height="42" rx="4"></rect>
                        <rect id="Background-Copy" fill="#FFFFFF" x="0" y="152" width="131" height="42" rx="4"></rect>
                        <g id="Text" transform="translate(39.000000, 12.600000)" fill="#DDE3E9">
                            <rect id="Name" x="0" y="0" width="73" height="6.3" rx="3"></rect>
                            <rect id="Name-Copy" x="0" y="152" width="73" height="6.3" rx="3"></rect>
                            <rect id="Name" x="0" y="11" width="49" height="6.3" rx="3"></rect>
                            <rect id="Name-Copy-2" x="0" y="163" width="49" height="6.3" rx="3"></rect>
                        </g>
                    </g>
                    <g id="Row" transform="translate(0.000000, 112.000000)">
                        <rect id="Container" fill="#FFFFFF" x="0" y="0" width="131" height="42" rx="4"></rect>
                        <g id="Container-Copy">
                            <use fill="black" fill-opacity="1" filter="url(#filter-4)" xlink:href="#path-3"></use>
                            <use fill="#FFFFFF" fill-rule="evenodd" xlink:href="#path-3"></use>
                        </g>
                        <g id="Text-Stuff" transform="translate(9.000000, 12.600000)">
                            <rect id="Label" fill="#DDE3E9" x="0" y="0" width="73" height="6.3" rx="3"></rect>
                            <rect id="Label-Copy" fill="#DDE3E9" x="0" y="152" width="73" height="6.3" rx="3"></rect>
                            <rect id="Label" fill="#AFB9C5" x="0" y="11" width="49" height="6.3" rx="3"></rect>
                            <rect id="Label-Copy-2" fill="#AFB9C5" x="0" y="163" width="49" height="6.3" rx="3"></rect>
                        </g>
                        <g id="Check" transform="translate(110.000000, 14.000000)">
                            <circle id="Background" fill="#DDE3E9" cx="7" cy="7" r="7"></circle>
                            <circle id="Background-Copy-2" fill="#DDE3E9" cx="7" cy="159" r="7"></circle>
                            <circle id="Indicator" fill="#F2F2F2" cx="7" cy="7" r="3"></circle>
                            <circle id="Indicator-Copy" fill="#F2F2F2" cx="7" cy="159" r="3"></circle>
                        </g>
                    </g>
                    <g id="Row" transform="translate(0.000000, 162.000000)">
                        <rect id="Background" fill="#FFFFFF" x="0" y="0" width="131" height="42" rx="4"></rect>
                        <g id="Text" transform="translate(39.000000, 12.600000)" fill="#DDE3E9">
                            <rect id="Name" x="0" y="0" width="73" height="6.3" rx="3"></rect>
                            <rect id="Name" x="0" y="10.5" width="49" height="6.3" rx="3"></rect>
                        </g>
                    </g>
                </g>
            </g>
            <g id="Humaaan" transform="translate(248.500000, 237.000000) scale(-1, 1) translate(-248.500000, -237.000000) translate(179.000000, 135.000000)">
                <g id="Head/Front/Short-Beard" transform="translate(69.419175, 31.733557) rotate(-16.000000) translate(-69.419175, -31.733557) translate(37.949149, 7.745040)">
                    <g id="Head" stroke-width="1" transform="translate(25.014706, 14.307692)" fill="#B28B67">
                        <path d="M3.82737687,15.91852 C1.69283054,13.4221735 0.248124941,10.3628664 0.489536096,6.93482487 C1.18510885,-2.94231719 14.9849811,-0.76947178 17.669342,4.21566135 C20.3537028,9.20079448 20.034731,21.8459981 16.5654337,22.7369804 C15.1818832,23.0923028 12.2345095,22.2219055 9.23477039,20.4204504 L11.1176471,33.6923077 L0,33.6923077 L3.82737687,15.91852 Z"></path>
                    </g>
                    <path d="M34.8053253,22.3333519 C35.2308921,28.239741 36.3566289,31.1929355 38.1825357,31.1929355 C40.9215564,31.1929355 43.2454208,29.460482 44.4472372,29.460482 C45.3233206,29.460482 45.1277181,30.5528033 44.5470042,31.3626819 C44.0678965,32.0308579 41.7346823,32.6748996 41.7346823,33.7107967 C41.7346823,34.7466937 43.5781151,33.9452773 43.5781151,34.5596476 C43.5781151,35.5758911 43.9020956,37.4866105 42.1318171,37.4866105 C40.3402361,37.4866105 35.2034561,36.8361156 34.3231512,34.1868333 C33.7550281,32.477064 33.3876957,28.9341022 33.221154,23.5579479 C33.112471,23.5450805 33.0018642,23.5384615 32.8897059,23.5384615 C31.3546792,23.5384615 30.1102941,24.7782884 30.1102941,26.3076923 C30.1102941,27.0841007 30.4309881,27.7858814 30.9475989,28.2887141 C30.3044807,29.1931459 29.5837297,30.1379461 28.757826,31.112857 C25.6550848,29.2581573 23.3526745,23.828756 26.3861075,18.6130515 C27.224558,16.057959 29.1226925,14.6931881 31.364435,14.0594811 C33.180362,13.3026555 35.0654661,13.2173228 36.6567624,13.6710329 C39.7761437,13.937614 42.5616017,14.8853138 43.3510229,15.4481293 C43.3510229,18.3905406 42.7787928,19.2635453 37.8911673,19.1865932 C36.6901985,19.8185244 35.7669543,20.9067091 34.8053253,22.3333519 Z" id="Hair" fill="#191847"></path>
                </g>
                <g id="Bottom/Standing/Sweatpants" transform="translate(0.000000, 93.544671)">
                    <polygon id="Leg" fill="#997659" points="59.3066667 9.9475983e-14 76.2789548 58.096067 84.2618714 101.715481 92.2743145 101.715481 84.2761513 9.9475983e-14"></polygon>
                    <path d="M51.679147,0 C52.8634166,30.1806054 52.3963579,46.6419276 52.1313042,49.3839669 C51.8662505,52.1260061 50.361521,70.4903463 40.1078418,102.635983 L48.4414874,102.635983 C62.0207992,71.7977372 66.7612069,53.433397 68.3186512,49.3839669 C69.8760955,45.3345367 74.4759234,28.8732145 81.1914685,0 L51.679147,0 Z" id="Leg" fill="#B28B67"></path>
                    <path d="M58.9423193,1.13686838e-13 C63.3570761,19.9910158 70.9927133,51.901755 81.849231,95.7322176 L93.5683408,95.7322176 C94.4339307,50.7444397 90.7517517,21.1349557 84.3751372,1.13686838e-13 L58.9423193,1.13686838e-13 Z" id="Pant" fill="#69A1AC"></path>
                    <path d="M51.619929,0 C52.7797662,30.1806054 49.7739746,59.9142181 40.4631353,96.2021145 L52.9667809,96.2021145 C66.5710575,65.8241194 76.3216807,36.2372312 82.9855838,0 L51.619929,0 Z" id="Pant" fill="#89C5CC"></path>
                    <g id="Accessories/Shoe/Flat-Simple" transform="translate(38.920000, 91.589958)" fill="#191847">
                        <path d="M0,16.65 L0.455538275,9.45 C3.12265084,10.2147413 6.46326486,9.9147413 10.4773803,8.55 C14.5353145,11.3679667 19.5808796,13.3456227 25.6140756,14.482968 L25.6140749,14.4829717 C26.6995235,14.6875946 27.4135738,15.7334041 27.2089509,16.8188527 C27.197189,16.8812454 27.1824627,16.9430427 27.164822,17.0040345 L26.8767582,18 L10.4773803,18 L0.91107655,18 L0,16.65 Z" id="Shoe"></path>
                    </g>
                    <g id="Accessories/Shoe/Flat-Simple" transform="translate(82.473333, 91.589958)" fill="#191847">
                        <path d="M0,16.65 L0.455538275,9.45 C3.12265084,10.2147413 6.46326486,9.9147413 10.4773803,8.55 C14.5353145,11.3679667 19.5808796,13.3456227 25.6140756,14.482968 L25.6140749,14.4829717 C26.6995235,14.6875946 27.4135738,15.7334041 27.2089509,16.8188527 C27.197189,16.8812454 27.1824627,16.9430427 27.164822,17.0040345 L26.8767582,18 L10.4773803,18 L0.91107655,18 L0,16.65 Z" id="Shoe"></path>
                    </g>
                </g>
                <g id="Body/Long-Sleeve-1" transform="translate(78.471620, 74.104172) rotate(7.000000) translate(-78.471620, -74.104172) translate(26.971620, 18.104172)">
                    <path d="M78.5902221,28.3100375 L92.8485212,16.8474337 C94.9250346,13.2587414 97.0850418,10.374423 99.3285429,8.19447824 C100.049511,7.73071973 101.375482,7.29203701 100.499502,9.78181423 C99.6235223,12.2715914 98.8137248,14.9297898 99.5840091,15.5121143 C100.354293,16.0944388 101.80004,14.8331085 102.776183,15.8545783 C103.426946,16.5355581 100.879252,18.2463287 95.1331039,20.9868901 L85.512814,33.5434228 L78.5902221,28.3100375 Z M16.6125334,70.9117164 L26.2837314,70.9496273 C20.3122129,90.1651989 17.0884802,100.360861 16.6125334,101.536613 C15.5416531,104.182056 17.8077798,108.211019 18.7768656,110.376154 C15.6205856,111.783988 15.9568906,106.570203 11.9753283,108.416656 C8.34114284,110.102013 5.57662701,113.155766 1.37785085,110.57326 C0.861635988,110.255756 0.295948607,109.060297 1.66272084,108.126108 C5.0678489,105.798704 9.97484473,101.725327 10.6378571,100.384543 C11.541993,98.5561454 13.5335518,88.7318697 16.6125334,70.9117164 Z" id="Skin" fill="#B28B67"></path>
                    <path d="M39.6709196,6.43936622 L43.5978994,5.4089748 C59.5037327,16.8518408 67.7199087,40.7895333 86.9846871,52.1656476 L83.0925132,57.9394163 C51.2993908,56.8092516 40.8921324,27.644741 39.6709196,6.43936622 Z" id="Coat-Back" fill="#E87613" transform="translate(63.327803, 31.674196) rotate(-69.000000) translate(-63.327803, -31.674196) "></path>
                    <path d="M26.651505,80.5902104 C42.6974029,80.5902104 54.5004291,80.5902104 62.0605835,80.5902104 C63.6785978,80.5902104 63.3737139,78.2613116 63.1398201,77.0861365 C60.4404034,63.5231954 49.9029042,48.9030012 49.9029042,29.5964959 L39.6892591,28 C31.2412625,41.5435508 28.3197988,58.2184041 26.651505,80.5902104 Z" id="Shirt" fill="#DDE3E9"></path>
                    <path d="M26.9360502,41.3126852 C25.4526464,40.8876409 24.2779441,39.8963049 23.4119435,38.3386773 C19.678838,31.6241463 21.0270371,27.9272997 25.0165429,26.7121253 C29.0060487,25.4969509 32.5638525,28 38.9202017,28 C39.2659341,28 39.5825861,28.0216047 39.8701576,28.064814 L43.0675605,28.246685 C52.2412575,59.2382134 54.7713084,79.9152786 50.6577132,90.2778808 L22.7880104,90.2778808 C21.1367602,94.115984 19.556653,97.3452075 18.047689,99.9655511 L10.4536975,99.9655511 C9.73899617,76.9306195 15.2331137,57.3796642 26.9360502,41.3126852 Z" id="Coat-Front" fill="#FF9B21"></path>
                    <path d="M28.8568265,74.3613303 C29.7333233,81.6715496 31.1579237,86.9770664 33.130628,90.2778808 L22.7880104,90.2778808 C24.7141477,85.8008406 26.7370864,80.4953237 28.8568265,74.3613303 Z" id="Shade" fill-opacity="0.1" fill="#000000"></path>
                </g>
            </g>
        </g>
        <g id="Group-2" transform="translate(286.755149, 135.671672) rotate(14.000000) translate(-286.755149, -135.671672) translate(276.755149, 118.921672)" fill="#C5CFD6" fill-rule="nonzero">
            <path d="M9.78842881,26.0339315 C8.19085936,26.0339315 6.89577344,24.7388456 6.89577344,23.1412762 L6.89577344,17.204101 C6.91680709,15.6720329 8.17387311,14.4460215 9.70598813,14.4633101 L9.78842881,14.4633101 C11.4916363,14.4651961 13.0384296,13.4704313 13.7432575,11.9199033 C14.4480854,10.3693754 14.1805789,8.54987914 13.0592989,7.26782984 C12.0244416,6.08533329 10.4315022,5.55413911 8.89403973,5.87884951 C7.3565772,6.2035599 6.11447033,7.33351279 5.64614632,8.83347956 C5.31732358,9.8700702 4.43387076,10.6339182 3.3606531,10.8095551 C2.28743536,10.9851919 1.20657805,10.5428121 0.564474005,9.66511798 C0.0102927254,8.91144732 -0.146915356,7.93697248 0.142146321,7.04726487 C1.47210342,2.8426341 5.37848791,-0.0112317749 9.78842881,3.32299801e-05 C10.1725765,0.000362699542 10.5564214,0.021606946 10.9382593,0.0636716481 C15.7197053,0.606712834 19.4582153,4.44038765 19.8809206,9.2339708 C20.3036259,14.027554 17.2937097,18.456315 12.6810842,19.8277394 L12.6810842,23.1412762 C12.6810842,24.7388456 11.3859983,26.0339315 9.78842881,26.0339315 Z" id="Shape"></path>
            <circle id="Oval" cx="9.78842881" cy="30.3729146" r="2.89265537"></circle>
        </g>
        <g id="light-bulb-(1)" transform="translate(88.000000, 99.000000)" fill="#C5CFD6" fill-rule="nonzero">
            <path d="M11.99968,0 C5.37251582,0 0,5.37288 0,11.99976 C0,18.62664 5.37251582,24 11.99968,24 C18.6268442,24 24,18.62696 24,11.99976 C24,5.37256 18.6268442,0 11.99968,0 Z M11.9000793,17.47744 C10.8686325,17.47744 10.0327069,16.59088 10.0327069,15.49632 L13.7675318,15.49632 C13.7674518,16.59088 12.9312862,17.47744 11.9000793,17.47744 Z M13.6330509,14.4556 L10.1669478,14.4556 C10.0735872,13.43536 7.64885099,12.54592 7.64885099,9.99584 C7.64885099,7.27592 9.68286455,5.83368 11.8996793,5.77912 L11.8999193,5.77912 C11.9001593,5.77912 11.9001593,5.77912 11.9001593,5.77912 C14.1171341,5.83392 16.1509877,7.27592 16.1509877,9.99584 C16.1511477,12.54592 13.7264115,13.43536 13.6330509,14.4556 Z" id="Shape"></path>
            <path d="M11.99968,100 C5.37251582,100 0,105.37288 0,111.99976 C0,118.62664 5.37251582,124 11.99968,124 C18.6268442,124 24,118.62696 24,111.99976 C24,105.37256 18.6268442,100 11.99968,100 Z M11.9000793,117.47744 C10.8686325,117.47744 10.0327069,116.59088 10.0327069,115.49632 L13.7675318,115.49632 C13.7674518,116.59088 12.9312862,117.47744 11.9000793,117.47744 Z M13.6330509,114.4556 L10.1669478,114.4556 C10.0735872,113.43536 7.64885099,112.54592 7.64885099,109.99584 C7.64885099,107.27592 9.68286455,105.83368 11.8996793,105.77912 L11.8999193,105.77912 C11.9001593,105.77912 11.9001593,105.77912 11.9001593,105.77912 C14.1171341,105.83392 16.1509877,107.27592 16.1509877,109.99584 C16.1511477,112.54592 13.7264115,113.43536 13.6330509,114.4556 Z" id="Shape-Copy"></path>
            <path d="M11.99968,152 C5.37251582,152 0,157.37288 0,163.99976 C0,170.62664 5.37251582,176 11.99968,176 C18.6268442,176 24,170.62696 24,163.99976 C24,157.37256 18.6268442,152 11.99968,152 Z M11.9000793,169.47744 C10.8686325,169.47744 10.0327069,168.59088 10.0327069,167.49632 L13.7675318,167.49632 C13.7674518,168.59088 12.9312862,169.47744 11.9000793,169.47744 Z M13.6330509,166.4556 L10.1669478,166.4556 C10.0735872,165.43536 7.64885099,164.54592 7.64885099,161.99584 C7.64885099,159.27592 9.68286455,157.83368 11.8996793,157.77912 L11.8999193,157.77912 C11.9001593,157.77912 11.9001593,157.77912 11.9001593,157.77912 C14.1171341,157.83392 16.1509877,159.27592 16.1509877,161.99584 C16.1511477,164.54592 13.7264115,165.43536 13.6330509,166.4556 Z" id="Shape-Copy-2"></path>
        </g>
    </g>
</svg>