<?xml version="1.0" encoding="UTF-8"?>
<svg width="133px" height="61px" viewBox="0 0 133 61" version="1.1" xmlns="http://www.w3.org/2000/svg" xmlns:xlink="http://www.w3.org/1999/xlink">
    <!-- Generator: Sketch 53 (72520) - https://sketchapp.com -->
    <title>Artboard Copy 3</title>
    <desc>Created with Sketch.</desc>
    <defs>
        <polygon id="path-1" points="0.178325987 0.0674769919 29.5207737 0.0674769919 29.5207737 46.1163508 0.178325987 46.1163508"></polygon>
        <polygon id="path-3" points="0.277971256 0.087903989 18.5673482 0.087903989 18.5673482 29.4303517 0.277971256 29.4303517"></polygon>
        <polygon id="path-5" points="0 0.23482559 29.520802 0.23482559 29.520802 10.3842705 0 10.3842705"></polygon>
    </defs>
    <g id="Artboard-Copy-3" stroke="none" stroke-width="1" fill="none" fill-rule="evenodd">
        <g id="Group-18" transform="translate(3.000000, 0.000000)">
            <path d="M62.6901146,17.6021584 L62.6901146,39.7182023 C62.6901146,41.7176148 61.0661401,43.3314042 59.0769127,43.3314042 C57.58478,43.3314042 56.2853174,42.4283159 55.7375796,41.1087658 C53.4130892,42.570343 50.7643697,43.3314042 48.0237005,43.3314042 C46.0647458,43.3314042 44.1669023,42.945781 42.410803,42.2149924 C40.6450843,41.4842039 39.0411973,40.40825 37.6506337,39.0179693 C34.8799746,36.2470274 33.3572863,32.5628119 33.3572863,28.6449025 L33.3572863,17.5919732 C33.3572863,16.6277737 33.7330072,15.7244025 34.4131527,15.04454 C35.0930152,14.3544922 36.0068545,13.9787713 36.9707712,13.9787713 C37.9652434,13.9787713 38.8688975,14.3847649 39.5286725,15.0343548 C40.1779795,15.6941298 40.5839731,16.5972181 40.5839731,17.5919732 L40.5839731,28.6449025 C40.5839731,32.755765 43.9131209,36.1050003 48.0237005,36.1050003 C50.0030256,36.1050003 51.8703134,35.3334709 53.2812474,33.9228199 C54.6918985,32.5121688 55.4634278,30.644598 55.4634278,28.6550877 L55.4634278,17.6021584 C55.4634278,15.6027459 57.0874024,13.9889565 59.0769127,13.9889565 C60.0408293,13.9889565 60.9442005,14.3643945 61.6345312,15.04454 C62.3143937,15.7345877 62.6901146,16.6379589 62.6901146,17.6021584" id="Fill-1" fill="#384258"></path>
            <g id="Group-5" transform="translate(0.000000, 13.911294)">
                <mask id="mask-2" fill="white">
                    <use xlink:href="#path-1"></use>
                </mask>
                <g id="Clip-4"></g>
                <path d="M14.8444572,22.193706 C12.8552299,22.193706 10.9876591,21.4122744 9.58719325,20.0013404 C8.17625925,18.5906893 7.40501279,16.7231185 7.40501279,14.7336082 C7.40501279,10.6230287 10.7440629,7.29388087 14.8444572,7.29388087 L14.8546424,7.29388087 C18.9550368,7.29388087 22.2943698,10.6332139 22.2943698,14.7336082 C22.2943698,16.7231185 21.5129382,18.5906893 20.1020042,20.0013404 C18.7015383,21.4122744 16.8336846,22.193706 14.8444572,22.193706 M28.4657561,1.12306046 C27.8056981,0.473470633 26.9023269,0.0674769919 25.9078547,0.0674769919 C24.4462776,0.0674769919 23.146815,0.960663001 22.5787068,2.27002786 C20.2644016,0.828821164 17.605214,0.0674769919 14.8546424,0.0674769919 L14.8444572,0.0674769919 C6.76532525,0.0674769919 0.188511194,6.64457397 0.178325987,14.7336082 C0.178325987,18.6413324 1.71091662,22.3255479 4.48185858,25.106675 C7.25251762,27.8875193 10.9367331,29.4099247 14.8444572,29.4099247 C17.4937426,29.4099247 20.0411758,28.7096918 22.2844675,27.3802394 L22.2844675,31.4500781 C22.2844675,33.5004167 21.4518269,35.3677046 20.1020042,36.707625 C18.7524643,38.0574478 16.8947959,38.8898055 14.8444572,38.8898055 C12.1855525,38.8898055 9.7091328,37.4689692 8.38958274,35.1750344 C7.91229265,34.3327744 7.13086099,33.7338277 6.19721708,33.4800463 C5.27347545,33.2364501 4.29937363,33.3685749 3.46673302,33.8554843 C2.62447304,34.3327744 2.03599445,35.1040209 1.78221306,36.0379477 C1.52843167,36.9715916 1.65999058,37.9459764 2.13728067,38.7882363 C4.76591267,43.3048095 9.62793407,46.1164923 14.8444572,46.1164923 C22.9337744,46.1164923 29.5108714,39.5393953 29.5108714,31.4602633 L29.5207737,3.68067893 C29.5207737,2.68592378 29.1147801,1.78283549 28.4657561,1.12306046" id="Fill-3" fill="#384258" mask="url(#mask-2)"></path>
            </g>
            <path d="M73.8241012,17.6124002 L73.8241012,39.7182588 C73.8241012,41.7077691 72.2001267,43.3314608 70.2108993,43.3314608 C69.2464168,43.3314608 68.3331433,42.9560228 67.6529979,42.265975 C66.9731354,41.5858296 66.5974144,40.6824584 66.5974144,39.7182588 L66.5974144,17.602215 C66.5974144,15.6129876 68.221389,13.9890131 70.2108993,13.9890131 C71.185284,13.9991983 72.0883723,14.3746363 72.7685178,15.0544988 C73.4483803,15.7346443 73.8241012,16.6482007 73.8241012,17.6124002" id="Fill-6" fill="#384258"></path>
            <g id="Group-10" transform="translate(110.622658, 13.911294)">
                <mask id="mask-4" fill="white">
                    <use xlink:href="#path-3"></use>
                </mask>
                <g id="Clip-9"></g>
                <path d="M18.5674897,3.70110593 C18.5674897,4.69586108 18.161496,5.59894937 17.5121891,6.25872441 C16.8524141,6.90831423 15.9490429,7.31430787 14.9542877,7.31430787 C12.9039491,7.31430787 11.0366613,8.14666557 9.6967408,9.49648832 C8.34691804,10.8361259 7.51484327,12.6937943 7.51484327,14.7540352 L7.50437514,25.8171498 C7.50437514,27.8165623 5.8908687,29.4303517 3.8911732,29.4303517 C2.93715887,29.4303517 2.02360245,29.0549137 1.34373993,28.3747682 C0.6536922,27.6847205 0.277971256,26.7813493 0.277971256,25.8171498 L0.288439384,3.70110593 C0.288439384,2.7369064 0.663594484,1.82334998 1.34373993,1.14320453 C2.03407058,0.463342011 2.93715887,0.087903989 3.9013584,0.087903989 C4.64233216,0.087903989 5.33266281,0.311129761 5.91123912,0.696752989 C6.4895325,1.08237622 6.95635445,1.64058211 7.23050626,2.30035714 C9.54452855,0.848965239 12.1938139,0.087903989 14.9542877,0.087903989 C15.9187702,0.087903989 16.8317607,0.463342011 17.5121891,1.14320453 C18.1920516,1.83353518 18.5674897,2.7369064 18.5674897,3.70110593" id="Fill-8" fill="#384258" mask="url(#mask-4)"></path>
            </g>
            <path d="M73.8951147,4.00171098 C73.8951147,5.01655362 73.4789359,5.94029525 72.8191609,6.61025548 C72.1492006,7.26974759 71.2257419,7.68592644 70.2108993,7.68592644 C68.1809311,7.68592644 66.5365861,6.03167918 66.5365861,4.00171098 C66.5365861,3.01714103 66.9120241,2.09339941 67.61254,1.39316647 C68.3127729,0.703118743 69.2365145,0.317495515 70.2108993,0.317495515 L70.2210845,0.317495515 C72.2507698,0.317495515 73.8951147,1.97174277 73.8951147,4.00171098" id="Fill-11" fill="#384258"></path>
            <path d="M92.3977869,36.1150724 C88.2973926,36.1150724 84.9580595,32.765837 84.9580595,28.6549746 C84.9580595,24.5548632 88.2973926,21.2155301 92.3977869,21.2155301 C94.3872972,21.2155301 96.254585,21.9969618 97.665519,23.3977106 C99.0659849,24.8083617 99.8375142,26.6759324 99.8375142,28.6549746 C99.8375142,32.765837 96.4981812,36.1150724 92.3977869,36.1150724 M106.008335,1.433879 C105.359028,0.784289179 104.455657,0.378295538 103.461184,0.378295538 C101.471674,0.378295538 99.8476994,2.0022701 99.8476994,3.99149748 L99.8476994,16.0188115 C97.5945055,14.6893592 95.0366041,13.9888433 92.4079721,13.9888433 L92.3977869,13.9888433 C84.3186549,13.9888433 77.7316556,20.5659403 77.7316556,28.6549746 C77.7316556,32.5728839 79.2642462,36.2570994 82.0349053,39.0280414 C84.8058473,41.8088856 88.4900627,43.3414762 92.3977869,43.3414762 C100.487387,43.3414762 107.064201,36.754477 107.064201,28.6651598 L107.074386,3.99149748 C107.074386,2.99674233 106.66811,2.09365404 106.008335,1.433879" id="Fill-13" fill="#384258"></path>
            <g id="Group-17" transform="translate(0.000000, 0.048097)">
                <mask id="mask-6" fill="white">
                    <use xlink:href="#path-5"></use>
                </mask>
                <g id="Clip-16"></g>
                <path d="M14.7607405,6.83189689 C10.1748514,6.83189689 6.74724651,6.04791893 4.89608526,5.30949147 C6.74724651,4.57106401 10.175983,3.78708605 14.7607405,3.78708605 C19.345498,3.78708605 22.7728199,4.57106401 24.6242641,5.30949147 C22.7728199,6.04791893 19.345498,6.83189689 14.7607405,6.83189689 M14.7601747,0.234712421 C6.60861453,0.234712421 -0.000169753439,2.5068622 -0.000169753439,5.30949147 C-0.000169753439,8.11212074 6.60861453,10.3842705 14.7601747,10.3842705 C22.9123006,10.3842705 29.520802,8.11212074 29.520802,5.30949147 C29.520802,2.5068622 22.9123006,0.234712421 14.7601747,0.234712421" id="Fill-15" fill="#3E70FE" mask="url(#mask-6)"></path>
            </g>
        </g>
    </g>
</svg>