<?xml version="1.0" encoding="UTF-8"?>
<svg width="178px" height="89px" viewBox="0 0 178 89" version="1.1" xmlns="http://www.w3.org/2000/svg" xmlns:xlink="http://www.w3.org/1999/xlink">
    <!-- Generator: Sketch 52.6 (67491) - http://www.bohemiancoding.com/sketch -->
    <title>Logo Copy 2</title>
    <desc>Created with Sketch.</desc>
    <defs>
        <polygon id="path-1" points="0.827164179 0.465597015 24.9735075 0.465597015 24.9735075 40.0688308 0.827164179 40.0688308"></polygon>
    </defs>
    <g id="Logo-Copy-2" stroke="none" stroke-width="1" fill="none" fill-rule="evenodd">
        <rect fill="#FFFFFF" x="0" y="0" width="178" height="89"></rect>
        <g id="Group-2" transform="translate(6.000000, 2.000000)">
            <g id="Group">
                <g id="Group-19" transform="translate(0.000000, 2.537313)">
                    <path d="M20.2529602,50.0438557 C14.1211194,50.0438557 9.13106965,45.053806 9.13106965,38.9219652 C9.13106965,32.7901244 14.1211194,27.8000746 20.2529602,27.8000746 C26.3826866,27.8000746 31.3748507,32.7901244 31.3748507,38.9219652 C31.3748507,45.053806 26.3826866,50.0438557 20.2529602,50.0438557 M35.7094279,19.1309204 C33.595,19.1309204 31.8611692,20.6321642 31.4594279,22.6197264 C28.2666418,20.4207214 24.4183831,19.1309204 20.2529602,19.1309204 C9.32136816,19.1309204 0.440771144,28.0115174 0.440771144,38.9219652 C0.440771144,49.8535572 9.32136816,58.7341542 20.2529602,58.7341542 C24.3739801,58.7341542 28.203209,57.4654975 31.3748507,55.3087811 L31.3748507,62.286393 C31.3748507,68.4182338 26.3826866,73.4082836 20.2529602,73.4082836 C16.2989801,73.4082836 12.5987313,71.2727114 10.6090547,67.8473383 C9.42708955,65.775199 6.76291045,65.0774378 4.69077114,66.2615174 C2.61863184,67.4667413 1.89972637,70.1309204 3.10495025,72.2030597 C6.63604478,78.3137562 13.2119154,82.0985821 20.2529602,82.0985821 C31.163408,82.0985821 40.0418905,73.2179851 40.0418905,62.286393 L40.0418905,23.4654975 C40.0418905,21.076194 38.0966169,19.1309204 35.7094279,19.1309204" id="Fill-3" fill="#29394B"></path>
                    <path d="M63.7433582,58.7278109 C52.8223383,58.7278109 43.9396269,49.8450995 43.9396269,38.926194 L43.9396269,23.4676119 C43.9396269,21.0677363 45.8849005,19.1245771 48.2826617,19.1245771 C50.6783085,19.1245771 52.6235821,21.0677363 52.6235821,23.4676119 L52.6235821,38.926194 C52.6235821,45.0559204 57.6115174,50.0438557 63.7433582,50.0438557 C69.8709701,50.0438557 74.8589055,45.0559204 74.8589055,38.926194 L74.8589055,23.4676119 C74.8589055,21.0677363 76.8041791,19.1245771 79.2019403,19.1245771 C81.5975871,19.1245771 83.5428607,21.0677363 83.5428607,23.4676119 L83.5428607,38.926194 C83.5428607,49.8450995 74.6622637,58.7278109 63.7433582,58.7278109" id="Fill-5" fill="#29394B"></path>
                    <path d="M91.8730721,58.7278109 C89.4753109,58.7278109 87.5321517,56.7846517 87.5321517,54.3847761 L87.5321517,23.4676119 C87.5321517,21.0677363 89.4753109,19.1245771 91.8730721,19.1245771 C94.2729478,19.1245771 96.216107,21.0677363 96.216107,23.4676119 L96.216107,54.3847761 C96.216107,56.7846517 94.2729478,58.7278109 91.8730721,58.7278109" id="Fill-7" fill="#29394B"></path>
                    <path d="M96.6865672,4.44029851 C96.6865672,6.89303483 94.699005,8.88059701 92.2441542,8.88059701 C89.7935323,8.88059701 87.8059701,6.89303483 87.8059701,4.44029851 C87.8059701,1.98756219 89.7935323,0 92.2441542,0 C94.699005,0 96.6865672,1.98756219 96.6865672,4.44029851" id="Fill-12-Copy" fill="#29394B"></path>
                    <g id="Group-11" transform="translate(142.781095, 18.665746)">
                        <mask id="mask-2" fill="white">
                            <use xlink:href="#path-1"></use>
                        </mask>
                        <g id="Clip-10"></g>
                        <path d="M24.9739303,4.80017413 C24.9739303,7.18947761 23.0286567,9.13475124 20.6160945,9.13475124 C14.4863682,9.13475124 9.49631841,14.124801 9.49631841,20.2566418 L9.49631841,35.7131095 C9.49631841,38.1235572 7.55104478,40.0688308 5.16174129,40.0688308 C2.77243781,40.0688308 0.827164179,38.1235572 0.827164179,35.7131095 L0.827164179,4.80017413 C0.827164179,2.41087065 2.77243781,0.465597015 5.16174129,0.465597015 C7.25502488,0.465597015 9.01,1.9668408 9.41174129,3.95440299 C12.6045274,1.75539801 16.4527861,0.465597015 20.6160945,0.465597015 C23.0286567,0.465597015 24.9739303,2.41087065 24.9739303,4.80017413" id="Fill-9" fill="#29394B" mask="url(#mask-2)"></path>
                    </g>
                    <path d="M119.905734,50.0438557 C113.773893,50.0438557 108.783843,45.053806 108.783843,38.9219652 C108.783843,32.7901244 113.773893,27.8000746 119.905734,27.8000746 C126.03546,27.8000746 131.027624,32.7901244 131.027624,38.9219652 C131.027624,45.053806 126.03546,50.0438557 119.905734,50.0438557 M135.362201,0.0799253731 C132.972898,0.0799253731 131.027624,2.025199 131.027624,4.43564677 L131.027624,22.5351493 C127.855983,20.3995771 124.028868,19.1309204 119.905734,19.1309204 C108.995286,19.1309204 100.114689,28.0115174 100.114689,38.9219652 C100.114689,49.8535572 108.995286,58.7341542 119.905734,58.7341542 C130.837326,58.7341542 139.717923,49.8535572 139.717923,38.9219652 L139.717923,4.43564677 C139.717923,2.025199 137.772649,0.0799253731 135.362201,0.0799253731" id="Fill-17" fill="#29394B"></path>
                </g>
                <ellipse id="Oval" stroke="#3E70FE" stroke-width="5" cx="20.0234542" cy="7.47761194" rx="17.2547974" ry="4.97761194"></ellipse>
            </g>
        </g>
    </g>
</svg>